<svg xmlns="http://www.w3.org/2000/svg" width="62" height="87" viewBox="0 0 62 87">
  <g fill="none" fill-rule="evenodd">
    <path fill="#F3F5F8" d="M60.7687129,86.7742574 L1.23128713,86.7742574 C0.623762376,86.7742574 0.133069307,86.2835644 0.133069307,85.6760396 L0.133069307,10.2027723 C0.133069307,9.59524752 0.623762376,9.10455446 1.23128713,9.10455446 L60.7920792,9.10455446 C61.399604,9.10455446 61.890297,9.59524752 61.890297,10.2027723 L61.890297,85.6760396 C61.8669307,86.2835644 61.3762376,86.7742574 60.7687129,86.7742574"/>
    <polyline fill="#FFFFFE" points="6.208 13.568 6.208 74.974 47.146 74.974 47.146 66.329 55.792 66.329 55.792 13.568 6.208 13.568"/>
    <polyline fill="#E6E9E9" points="47.146 74.974 55.792 66.329 47.146 66.329 47.146 74.974"/>
    <path fill="#FACC5F" d="M35.860198,6.62772277 L35.860198,4.9219802 C35.860198,2.23485149 33.6871287,0.0617821782 31,0.0617821782 C28.3128713,0.0617821782 26.139802,2.23485149 26.139802,4.9219802 L26.139802,6.62772277 L17.5643564,6.62772277 L17.5643564,16.5817822 L44.4590099,16.5817822 L44.4590099,6.62772277 L35.860198,6.62772277"/>
    <path fill="#FFF" d="M31,2.51524752 C32.3421624,2.51524752 33.430099,3.60318416 33.430099,4.94534653 C33.430099,6.28750891 32.3421624,7.37544554 31,7.37544554 C29.6578376,7.37544554 28.569901,6.28750891 28.569901,4.94534653 C28.569901,3.60318416 29.6578376,2.51524752 31,2.51524752"/>
    <polygon fill="#82EFA6" points="13.055 31.723 18.616 31.723 18.616 29.153 13.055 29.153"/>
    <polygon fill="#E6E9E9" points="22.074 31.723 48.945 31.723 48.945 29.153 22.074 29.153"/>
    <polygon fill="#82EFA6" points="13.055 39.738 18.616 39.738 18.616 37.168 13.055 37.168"/>
    <polygon fill="#E6E9E9" points="22.074 39.738 48.945 39.738 48.945 37.168 22.074 37.168"/>
    <polygon fill="#82EFA6" points="13.055 47.752 18.616 47.752 18.616 45.182 13.055 45.182"/>
    <polygon fill="#E6E9E9" points="22.074 47.752 48.945 47.752 48.945 45.182 22.074 45.182"/>
    <polygon fill="#82EFA6" points="13.055 55.767 18.616 55.767 18.616 53.197 13.055 53.197"/>
    <polygon fill="#E6E9E9" points="22.074 55.767 48.945 55.767 48.945 53.197 22.074 53.197"/>
  </g>
</svg>
