<svg xmlns="http://www.w3.org/2000/svg" width="12" height="17" viewBox="0 0 12 17">
  <g fill="red" opacity=".496">
    <path d="M1.0106079 16.0577508C1.0106079 16.2591976 1.17390274 16.4224924 1.37534954 16.4224924L10.633769 16.4224924C10.8352158 16.4224924 10.9985106 16.2591976 10.9985106 16.0577508L10.9985106 4.2398845 1.0106079 4.2398845 1.0106079 16.0577508zM8.056231 6.25105167L9.42401216 6.25105167 9.42401216 14.2029483 8.056231 14.2029483 8.056231 6.25105167zM5.32066869 6.25105167L6.68844985 6.25105167 6.68844985 14.2029483 5.32066869 14.2029483 5.32066869 6.25105167zM2.58510638 6.25105167L3.95288754 6.25105167 3.95288754 14.2029483 2.58510638 14.2029483 2.58510638 6.25105167zM9.07887538 1.67618845L9.07887538.364741641C9.07887538.163294833 8.91558055 0 8.71413374 0L3.2949848 0C3.09353799 0 2.93024316.163294833 2.93024316.364741641L2.93024316 1.67618845 2.93024316 1.90415198 2.93024316 2.1321155.380680851 2.1321155C.179234043 2.1321155.0159392097 2.29541033.0159392097 2.49685714L.0159392097 3.41921581C.0159392097 3.62064438.179234043 3.78395745.380680851 3.78395745L1.0106079 3.78395745 10.9985106 3.78395745 11.6284377 3.78395745C11.8298845 3.78395745 11.9931793 3.62064438 11.9931793 3.41921581L11.9931793 2.49685714C11.9931793 2.29541033 11.8298845 2.1321155 11.6284377 2.1321155L9.07887538 2.1321155 9.07887538 1.90415198 9.07887538 1.67618845zM7.71109422 2.05712462L4.29802432 2.05712462 4.29802432 1.90413374 4.29802432 1.67617021 4.29802432 1.36778116 7.71109422 1.36778116 7.71109422 1.67618845 7.71109422 1.90415198 7.71109422 2.05712462z"/>
  </g>
</svg>
