<svg height="56" viewBox="0 0 43 56" width="43" xmlns="http://www.w3.org/2000/svg"><g fill="none" fill-rule="evenodd" stroke="#82efa6" stroke-width="2" transform="translate(2 1)"><path d="m21.23 14.879-8.3008-4.7891c-.69141-.39844-1.5469-.39844-2.2383 0l-8.3008 4.7891c-.85547.48047-1.3828 1.3828-1.3906 2.3594v9.3125c0 .97266.51953 1.8711 1.3594 2.3594l8.3008 4.7891c.69141.40234 1.5469.40234 2.2383 0l8.3008-4.7891c.84375-.48828 1.3594-1.3867 1.3594-2.3594v-9.3125c.00781-.96484-.5-1.8633-1.3281-2.3594z"/><path d="m8.41 20.629 2 1.2812c.84375.48828 1.8867.48828 2.7305 0l1.9297-1.1016"/><path d="m1.301 16.059 9.0977 5.8398c.84375.48828 1.3594 1.3906 1.3633 2.3633v5.4609m10.738-13.184-9.3711 5.3594c-.83984.48828-1.3594 1.3906-1.3594 2.3633v9.7383"/><path d="m6.898 31.539-4.5117 2.6094h.0039c-.85547.48047-1.3828 1.3828-1.3906 2.3633v9.3086c0 .97266.51953 1.8711 1.3594 2.3594l8.332 4.8203c.69141.39844 1.5469.39844 2.2383 0l8.3008-4.7891c.83984-.48828 1.3594-1.3867 1.3594-2.3594v-9.3398c0-.97266-.51953-1.875-1.3594-2.3633l-4.5781-2.6406"/><path d="m8.41 39.891 2 1.2812c.84375.48438 1.8867.48438 2.7305 0l1.9297-1.1016"/><path d="m1.301 35.328 9.1094 5.8398v.0039c.83984.48439 1.3594 1.38671 1.3594 2.35941v5.4688"/><path d="m22.5 35.809-9.3789 5.3711c-.84375.48828-1.3594 1.3867-1.3594 2.3594v9.7383m10.8163-31.5868 5.2109 3c.69531.39844 1.5469.39844 2.2422 0l8.3008-4.7891-.00391-.0039c.84375-.48828 1.3633-1.3867 1.3633-2.3594v-9.3008c0-.97266-.51953-1.8711-1.3633-2.3594l-8.3281-4.7891c-.69141-.39844-1.5469-.39844-2.2383 0l-8.3008 4.7891c-.84375.48828-1.3594 1.3867-1.3594 2.3594v4.8203"/><path d="m25.52 11.629 2 1.2812c.84375.48828 1.8867.48828 2.7305 0l1.9297-1.1016"/><path d="m18.398 7.059 9.1094 5.8398h.00391c.83984.48828 1.3594 1.3906 1.3594 2.3633v5.4609"/><path d="m39.609 7.539-9.3789 5.3594c-.84375.48828-1.3594 1.3906-1.3594 2.3633v9.7383m-6.2927 16 5.2188 3h.00391c.68359.38672 1.5156.38672 2.1992 0l8.3008-4.7891c.83984-.48828 1.3594-1.3867 1.3594-2.3594v-9.3398c0-.97266-.51953-1.875-1.3594-2.3633l-4.5508-2.6289m-15.621 8.1719v1.6484m5.8984-9.8008-1.4297.82813"/><path d="m25.52 30.891 2 1.2812c.84375.48438 1.8867.48438 2.7305 0l1.9297-1.1016"/><path d="m21.77 28.488 5.7305 3.6797v.0039c.83984.48438 1.3594 1.3867 1.3594 2.3594v5.4688m10.7491-13.1908-9.3789 5.3711c-.84375.48828-1.3594 1.3867-1.3594 2.3594v9.7383"/></g></svg>