<svg height="119" viewBox="0 0 121 119" width="121" xmlns="http://www.w3.org/2000/svg"><path d="m350.609 282.446c-33.347 0-60.388 27.035-60.388 60.387 0 26.681 17.303 49.317 41.297 57.302 3.018.559 4.126-1.31 4.126-2.905 0-1.44-.056-6.197-.082-11.243-16.8 3.653-20.345-7.125-20.345-7.125-2.747-6.98-6.705-8.836-6.705-8.836-5.479-3.748.413-3.671.413-3.671 6.064.425 9.257 6.223 9.257 6.223 5.386 9.232 14.127 6.563 17.573 5.02.542-3.902 2.107-6.568 3.834-8.075-13.413-1.527-27.513-6.705-27.513-29.844 0-6.593 2.359-11.98 6.222-16.209-.627-1.522-2.694-7.663.585-15.981 0 0 5.071-1.623 16.611 6.19 4.817-1.338 9.983-2.009 15.115-2.032 5.132.023 10.302.694 15.128 2.032 11.526-7.813 16.59-6.19 16.59-6.19 3.287 8.318 1.219 14.459.592 15.981 3.872 4.229 6.215 9.616 6.215 16.209 0 23.194-14.127 28.301-27.574 29.796 2.166 1.874 4.096 5.549 4.096 11.183 0 8.079-.07 14.582-.07 16.572 0 1.607 1.087 3.49 4.148 2.897 23.981-7.994 41.262-30.622 41.262-57.294 0-33.352-27.037-60.387-60.387-60.387" fill="#fffffe" fill-rule="evenodd" transform="translate(-290 -282)"/></svg>