<svg height="380" viewBox="0 0 380 380" width="380" xmlns="http://www.w3.org/2000/svg"><g fill="#82efa6" fill-rule="evenodd"><path d="m64.4648438 332.649891c4.6867134 4.086172 9.0895001 7.60508 13.4256813 10.757354 32.4889109 23.866441 71.7673009 36.69243 112.0763669 36.592098 6.220772.016677 12.42532-.28353 18.596138-.950678 25.667409-2.401672 50.568857-10.090436 73.116487-22.582561 34.723607-19.180069 62.591982-48.733651 79.704442-84.526029 17.111607-35.791524 22.615517-76.037988 15.72741-115.096639-.567042-3.385695-1.300897-6.888208-2.234867-10.690748-.016694-.066691-.016694-.133426-.033345-.200118-.867236-3.785973-1.8179-7.288272-2.885294-10.674095l-.016694-.050041c-11.958228-39.5441084-36.441684-74.1337291-69.76487-98.568869l-.016694-.0166943v-.0166943c-32.505562-23.9001542-71.831345-36.74237224-112.191646-36.62538415h-2.384942c-21.831622.2502008-43.464282 4.28628988-63.92836 11.90844815l-.06669.0166943-.166813.0500401c-1.200818.3001983-2.384942.6838253-3.535721 1.0841039v.0166943c-1.951324.6838253-3.819264 1.5510742-5.587167 2.5851379-.066691.0333459-.133424.0500401-.216809.083386l-.266848.1334262v.0166516c-59.4751925 26.051625-101.5518458 80.6748154-111.54265332 144.8517483-10.00703195 64.159855 13.45898402 128.990042 62.19062522 171.904177zm295.4845382-183.445009c.88393 4.002786 3.58576 7.371957 7.288166 9.089633-1.000703 3.135537-2.118094 6.404457-3.40234 9.79028h.016694c-6.754469 17.695516-15.911001 34.374004-27.201895 49.566231-5.687075-3.669199-12.941938-3.836013-18.795954-.46697-15.744061-20.030581-33.989666-37.942995-54.287657-53.319243-4.453168-11.79146-9.189408-22.982609-14.076365-33.289943-.033388-.100037-.066733-.200118-.116772-.300198-5.053471-10.707399-10.473697-20.914396-16.110818-30.6047672v-.0166516c4.002727 3.8860538 8.189046 7.5551248 12.541879 11.0075548.100079.100037.200158.200118.316888.300198 31.854879 24.933834 71.182369 38.426745 111.64087 38.276453.750506 0 1.450973-.016694 2.184827-.033388zm3.969382-2.768604v.016694c.016694-3.218923 1.76786-6.18756 4.60303-7.722068.750506 2.568444 1.467666 5.203835 2.118094 8.022224.016694.083386.016694.183466.050039.266852.733855 2.918682 1.284203 5.6039 1.784555 8.239121-4.553076-.150121-8.239001-3.752628-8.50585-8.289076v-.033346c-.016694-.166814-.050039-.316892-.050039-.483664zm-37.091941 101.27155h-.016694c-5.78741 0-11.024045-3.485775-13.242516-8.839432-2.218173-5.370351-.984009-11.524608 3.118797-15.62773 4.086112-4.102866 10.256802-5.320396 15.610423-3.102148 5.353621 2.218205 8.855955 7.438563 8.855955 13.24271-.016652 7.905662-6.421016 14.310119-14.343214 14.326771zm-47.934528 105.391752c-21.631379 11.858079-45.449635 19.213385-69.999697 21.615056-12.825379-8.672489-24.283212-19.180082-34.023396-31.188439 4.970213-4.536491 7.805212-10.9576 7.78856-17.695516 0-1.11745-.083384-2.251551-.233503-3.352349 37.091941-9.689944 72.066172-26.168186 103.152954-48.618372 2.918639 31.922378.650427 59.241232-6.687864 79.240217zm-139.896923-24.183659c-.150119-1.017369-.233504-2.051433-.250155-3.085496 0-10.090437 7.588317-18.579758 17.628652-19.697123 10.040335-1.117364 19.313 5.470261 21.531471 15.327148v.016694l.016652.016694c.333581 1.417648.483657 2.868685.467006 4.336245.016694 6.18756-2.868643 12.025009-7.821863 15.744291-5.537213 4.236293-12.908636 5.25379-19.380032 2.65183s-11.107729-8.406064-12.191774-15.310496zm5.370272-221.871753v.016694c2.168133-7.1717113 8.205698-12.5087591 15.577121-13.7930663 7.37185-1.2842218 14.843607 1.7011947 19.312999 7.7054163 4.469819 6.021044 5.17003 14.043267 1.801249 20.731229-3.368781 6.687961-10.223499 10.907645-17.711909 10.907645-5.253713.033345-10.307183-2.051434-14.043062-5.770844-3.719184-3.719239-5.804061-8.772825-5.770758-14.043267-.016694-1.951353.266848-3.886054.83389-5.73754zm68.227823-16.6951397c3.018718-.0166516 5.970575-.7838629 8.622408-2.2182052 9.006244 14.0266159 17.078304 28.6364639 24.183305 43.7296349.033345.100081.066733.200161.11673.300241 4.002728 8.422716 7.888896 17.495697 11.624817 26.968744-10.10694-7.355306-20.597331-14.193132-31.404908-20.464377-12.658439-7.321575-25.767744-13.826369-39.260031-19.463573 2.234867-7.471867.533697-15.560696-4.503122-21.515134 5.570516-5.0035892 11.174334-9.6066862 16.728199-13.69273v-.0166943c3.485724 4.0361318 8.555803 6.3545026 13.892773 6.3711542zm-63.176915 42.0123867c5.754108 4.152906 13.058925 5.537294 19.930381 3.769279 6.871455-1.767886 12.608484-6.504367 15.644153-12.925476 13.259168 5.553946 26.151152 11.958403 38.609774 19.163418 12.625136 7.304924 24.783607 15.377529 36.424606 24.167007.850585 2.268245 1.717821 4.586445 2.518367 6.92151h.016694c11.207636 30.838317 18.779302 62.891772 22.565562 95.499-31.154668 22.866048-66.362018 39.627367-103.754963 49.365558-2.168134-6.77122-7.221561-12.225256-13.826168-14.860476-6.587955-2.65183-14.026411-2.2349-20.263834 1.167489-12.941938-21.615043-23.899805-44.331654-32.755759-67.895788 10.457045-4.419929 17.428409-14.459984 17.945454-25.801424.500352-11.341013-5.570515-21.948502-15.593772-27.268899 9.0895-18.162614 19.980334-35.341077 32.538865-51.303973zm139.645019 133.592712c-3.936037-32.05559-11.474485-63.562105-22.481879-93.914963-.050039-.166772-.11673-.333544-.183464-.483665 17.812244 14.093222 33.90641 30.237578 47.947337 48.101745-7.488409 6.654658-8.239 18.11266-1.667781 25.684436-7.438455 7.355306-15.326924 14.243086-23.615878 20.614241zm-76.468104-179.875591c-5.804062 0-11.024045-3.4857754-13.242517-8.8394321-2.218173-5.3536994-1.000703-11.5246077 3.102103-15.6277301 4.102806-4.1028662 10.273454-5.3203962 15.627502-3.1021483 5.354048 2.2182478 8.839303 7.4385638 8.839303 13.2427101 0 7.9056622-6.421015 14.3267712-14.326562 14.3267712zm0-32.9394054c-2.551755.0166943-5.070122.5337048-7.405153 1.5677685-5.003516-9.9234933-8.922559-20.3640398-11.674728-31.138472-1.584397-6.3378511-2.75187-12.7922633-3.46903-19.29708154 37.65894-.08293478 74.435786 11.39184624 105.390211 32.85659874-23.816122 4.0695204-46.798822 11.9917061-68.048501 23.466359-3.485724-4.6701303-8.956289-7.4385638-14.793226-7.4552154zm-23.215819-28.5199029c2.284906 8.9226901 5.353621 17.612258 9.172757 26.0012433-1.884634-2.1181249-3.719185-4.1195178-5.553865-6.0376955-18.696045-19.4802247-37.275532-30.8716197-53.886317-33.239988 15.177062-4.31959307 30.854517-6.67130984 46.649386-7.00476859.733855 6.83825269 1.951325 13.60947199 3.619149 20.28078189zm-73.483671-4.9869375h.033346c.050039-.0166516.100079-.0333459.150118-.0500401 2.785215-1.2341817 5.687075-2.3516314 8.555803-3.4857754l.05004-.0166516c.050039-.0166943.133424-.0333886.216809-.0667345 18.312638-4.2862899 41.394819 6.9215107 65.012832 31.5218856 3.152142 3.302309 6.371061 6.9381622 9.723105 10.9242965v-.0166516c-5.987227 5.7204614-7.37185 14.7767911-3.368952 22.0321875-5.737456 4.2195981-11.524439 8.9730718-17.278546 14.1431768-5.854016-5.1368018-13.842819-7.0713749-21.397834-5.2204867-7.555014 1.8512724-13.742911 7.2716209-16.561258 14.5265903-12.408241-3.185534-25.033804-5.453609-37.775926-6.8049495-.350234-8.6724893-6.737818-15.911234-15.2936211-17.3620571 3.0354123-30.0377593 12.8420301-51.3210522 27.9524861-60.1250464zm-31.1546679 64.0104172h.1167729c.183421 0 .3668847.0166943.550391.0333459h.1167302l-.016694.0166943c7.6049686.3835843 13.5759704 6.6713098 13.5759704 14.2768165 0 .2835466-.0166513.5670506-.0500394.833903v.1000803-.0166942c-.5003516 7.6554618-6.9047581 13.5595168-14.576759 13.4258778-7.6553496-.150121-13.8428189-6.287897-14.043062-13.9595826v-.3835843c0-7.9056623 6.4210151-14.3267713 14.3265618-14.3267713zm18.2123029 17.7288186c12.42532 1.317568 24.733653 3.535773 36.841743 6.638007-1.701169 7.821977.700467 15.961189 6.337759 21.631696-12.808728 16.261344-23.916456 33.773692-33.17247 52.303069-5.05347-1.834621-10.506999-2.251552-15.7773638-1.217531-5.2204104-21.131293-8.5058491-42.679731-9.8234402-64.411763 7.8551657-1.117449 14.14297-7.121756 15.593772-14.943734zm-6.7877717 83.889854c2.2014787-.650437 4.4698187-.96733 6.7544687-.950678 3.51907-.016694 7.004666.733865 10.2235 2.184859 11.274242 4.953634 17.345152 17.328754 14.376516 29.287157-2.968679 11.958403-14.126319 20.047233-26.418001 19.163418-12.2916821-.883944-22.1650763-10.507153-23.3827594-22.765712-1.2175122-12.258558 6.5713043-23.633302 18.4458487-26.918788zm-.7672001 52.853852c2.4516758.683825 4.9702128 1.050715 7.5217118 1.084104 2.551755-.016695 5.103424-.383585 7.571666-1.084104 8.972941 23.900154 20.080242 46.931864 33.189121 68.830839-5.78741 4.553142-9.189408 11.507956-9.206059 18.879913 0 .500359.083384 1.000718.116772 1.501034-17.661954 2.134819-35.4575464 2.935377-53.2373413 2.384977.6003878-31.021483 5.3369699-61.824362 14.0430621-91.59655zm-18.4458487 99.217854c-1.5677456-1.200835-3.1688365-2.468363-4.7866215-3.785973 1.6010909.10008 3.2021819.20016 4.8199242.283546 0 1.150796-.0333454 2.318286-.0333454 3.502427zm4.3028786 3.235575c-.0166514-1.017369-.0333454-2.051433-.0333454-3.052108 0-1.184142.016694-2.368326.0333454-3.535773 3.6024546.10008 7.2049093.183466 10.8408801.183466 14.4431208 0 28.8529398-.867249 43.1782208-2.601832 1.784555 7.538473 7.121653 13.743112 14.309911 16.644758 7.188258 2.885336 15.344001 2.084779 21.848273-2.134819 8.972941 10.957599 19.279697 20.781188 30.687577 29.203476-3.869303.266852-7.855166.450319-12.14182.450319h-.016651c-39.043137.08339-77.104271-12.225256-108.6906362-35.157914zm203.1891159 9.273227c6.470969-20.630892 8.272304-47.68332 5.17003-78.902915v-.016652c9.223138-6.954814 17.962105-14.509939 26.167803-22.64915 5.386924 4.086172 12.608485 4.853298 18.746 1.984699 6.271153 11.224452 11.157683 23.182855 14.54303 35.607929-15.927653 26.318477-38.142684 48.298148-64.628571 63.97626zm67.544691-69.146792c-3.418991-11.358091-8.055409-22.315691-13.826168-32.689204 4.219537-3.235575 6.854804-8.138785 7.204909-13.44253.350234-5.320396-1.60109-10.523804-5.370272-14.276816 11.574393-15.527394 20.947393-32.589295 27.8355-50.684876 1.334242-3.519121 2.501715-6.904859 3.535721-10.173694v-.016652c.450312.083386.917276.116732 1.384282.150078.16677 0 .283542-.033346.450312-.05004 1.651131 10.073784 2.501715 20.247478 2.518367 30.454476-.016652 31.772086-8.189047 63.011322-23.732865 90.729813zm15.243667-146.136909c-4.119458 1.934658-6.938061 5.854101-7.471758 10.37394-.667122 0-1.284203.033346-2.001364.033346h.016694c-39.377017.15012-77.655046-12.925476-108.707671-37.109135-.083385-.116731-.200158-.216812-.316888-.316849-8.489198-6.67131-16.277758-14.193132-23.249122-22.4489046 5.62047-5.3870026 7.271515-13.7260331 4.086112-20.8311382 22.048517-11.9084481 45.983333-19.897411 70.746873-23.6499961 31.655062 23.466359 55.086068 56.3549984 66.895715 93.9491209zm-265.781099-107.8429938c-9.3896514 11.7253233-15.44391 29.6044336-17.7622897 52.7689292v-.0166943c-9.1894082.5337048-16.611212 7.7387194-17.3951061 16.9282619-14.0597134.7672113-27.9524863 3.5357729-41.2616083 8.189166 17.1449089-32.989787 43.7460745-60.1250461 76.4168691-77.8696628zm-79.187824 83.3907748c14.1263187-5.47026 29.0365316-8.655838 44.1644929-9.439743 1.3175484 8.422715 8.1723952 14.877128 16.661166 15.710988 1.3175484 22.082142 4.6700621 43.998622 9.9733023 65.479173-11.4911366 4.002786-19.3296509 14.676881-19.7134858 26.852182-.3835787 12.1753 6.7711204 23.316068 18.0124867 28.036153-8.8559543 30.15432-13.6592271 61.37605-14.2766078 92.796318-3.4523364-.150078-6.9047581-.350238-10.3238345-.600396l-.016694.016694c-30.1039257-26.751846-50.7353574-62.541662-58.75789051-102.005928-8.02210612-39.477503-3.00202419-80.474143 14.27659501-116.847191z"/><path d="m103.251566 229.054054c7.681536 0 14.596967-4.632812 17.54322-11.735295 2.946601-7.102482 1.31149-15.261028-4.121833-20.69439-5.433366-5.433362-13.591918-7.068472-20.6944061-4.121829-7.102488 2.929594-11.7353037 9.861676-11.7353037 17.543206.0170488 10.491739 8.5160963 18.991259 19.0082788 19.008264zm0-33.638795c5.910383 0 11.241282 3.559788 13.523898 9.027117 2.265305 5.467372 1.004917 11.769305-3.185067 15.959547-4.172935 4.189981-10.474741 5.433362-15.9421179 3.168015-5.4673766-2.265303-9.0441283-7.596504-9.0441283-13.523887.0170488-8.07352 6.5574508-14.630966 14.6479822-14.630966z"/></g></svg>