<svg xmlns="http://www.w3.org/2000/svg" xmlns:xlink="http://www.w3.org/1999/xlink" width="500" height="150" viewBox="0 0 500 150">
  <defs>
    <path id="adledger-a" d="M57.753115,52.2 L57.753115,5.65628319 C57.7505487,2.5920354 55.2278053,0.0723716814 52.1635575,0.0723716814 C49.9685398,0.0723716814 47.9681558,1.36530973 47.0669487,3.36707965 L46.0404,5.59982301 L43.9513735,4.31663717 C39.4121292,1.53469027 34.1905381,0.0615929204 28.8665487,0.0615929204 C13.0308035,0.0615929204 0,13.0926018 0,28.9281416 C0,44.7638867 13.0308035,57.7946903 28.8665487,57.7946903 C34.1905381,57.7946903 39.4121292,56.3217982 43.9513735,53.539646 L46.0404,52.2564602 L47.0669487,54.4892035 C47.9681558,56.4908708 49.9685398,57.7840655 52.1635575,57.7840655 C55.2278053,57.7840655 57.7505487,55.2642478 57.753115,52.2 Z M28.8867717,46.6104425 C19.1962549,46.5963788 11.2301345,38.6186584 11.2301345,28.9281416 C11.2301345,19.2277699 19.2122177,11.2458407 28.9124354,11.2458407 C38.6068018,11.2458407 46.5862673,19.218531 46.5947363,28.9127434 C46.5919133,38.6223027 38.6014124,46.6104425 28.8919044,46.6104425 L28.8867717,46.6104425 Z"/>
    <linearGradient id="adledger-b" x1="107.359%" x2="342.519%" y1="71.106%" y2="189.349%">
      <stop offset="0%" stop-color="#F05658"/>
      <stop offset="100%" stop-color="#614A9E"/>
    </linearGradient>
    <path id="adledger-d" d="M51.9908947,0.463584906 C48.9535263,0.469188679 46.4559649,2.97 46.4503684,6.01132075 L46.4503684,29.2058491 L43.2400175,27.3464151 C38.8915439,24.8323585 33.9574737,23.5088491 28.9364035,23.5088491 C13.2423158,23.5088491 0.328157895,36.4398113 0.328157895,52.1543208 C0.328157895,67.8686264 13.2423158,80.7996396 28.9364035,80.7996396 C34.208807,80.7996396 39.3799649,79.3402132 43.8759825,76.5832075 L45.9466842,75.3096226 L46.9642281,77.5256604 C47.8576316,79.5123509 49.8408246,80.7958698 52.0163333,80.7958698 C55.0537018,80.7958698 57.5543158,78.2949057 57.5568596,75.2535849 L57.5568596,6.01641509 C57.5543158,2.96949057 55.0496316,0.463584906 52.0061579,0.463584906 C52.0010702,0.463584906 51.9959825,0.463584906 51.9908947,0.463584906 Z M28.9231754,69.6956604 C19.3084035,69.6956604 11.3959825,61.7733 11.3959825,52.1456604 C11.3959825,42.5178679 19.3084035,34.5956604 28.9231754,34.5956604 C38.5328596,34.5956604 46.4422281,42.5086981 46.4503684,52.1303774 C46.4478246,61.7595962 38.5399825,69.6845038 28.9231754,69.6956604 Z"/>
    <linearGradient id="adledger-e" x1="24.852%" x2="260.085%" y1="35.479%" y2="119.819%">
      <stop offset="0%" stop-color="#F05658"/>
      <stop offset="100%" stop-color="#614A9E"/>
    </linearGradient>
    <path id="adledger-g" d="M51.9959825,0.463584906 C48.958614,0.469188679 46.4610526,2.97 46.4554561,6.01132075 L46.4554561,29.2058491 L43.2451053,27.3464151 C38.8961228,24.8313396 33.9610351,23.5073208 28.9384386,23.5073208 C13.2448596,23.5073208 0.330192982,36.438283 0.330192982,52.1527925 C0.330192982,67.8670981 13.2448596,80.7981113 28.9384386,80.7981113 C34.2103333,80.7981113 39.3804737,79.3392453 43.8759825,76.5832075 L45.9466842,75.3096226 L46.9642281,77.5256604 C47.8576316,79.5123509 49.8408246,80.7958698 52.0163333,80.7958698 C55.0537018,80.7958698 57.5543158,78.2949057 57.5568596,75.2535849 L57.5568596,6.01641509 C57.5543158,2.96949057 55.0496316,0.463584906 52.0061579,0.463584906 C52.0031053,0.463584906 51.9995439,0.463584906 51.9959825,0.463584906 Z M28.9282632,69.6956604 C19.3134912,69.6956604 11.4010702,61.7733 11.4010702,52.1456604 C11.4010702,42.5178679 19.3134912,34.5956604 28.9282632,34.5956604 C38.5379474,34.5956604 46.4473158,42.5086981 46.4554561,52.1303774 C46.4529123,61.7595962 38.5450702,69.6845038 28.9282632,69.6956604 Z"/>
    <linearGradient id="adledger-h" x1="-182.388%" x2="52.854%" y1="-38.822%" y2="45.519%">
      <stop offset="0%" stop-color="#F05658"/>
      <stop offset="100%" stop-color="#614A9E"/>
    </linearGradient>
    <path id="adledger-j" d="M5.5345,0.463584906 C2.5495,0.469188679 0.095,2.97 0.0895,6.01132075 L0.0895,75.2433962 C0.0895,78.2881811 2.549,80.7936792 5.537,80.7936792 C8.5255,80.7936792 10.9845,78.2881811 10.9845,75.2433962 L10.9845,6.01641509 C10.982,2.9715283 8.5235,0.466132075 5.5345,0.463584906 Z"/>
    <linearGradient id="adledger-k" x1="-396.879%" x2="817.439%" y1="18.962%" y2="103.307%">
      <stop offset="0%" stop-color="#F05658"/>
      <stop offset="100%" stop-color="#614A9E"/>
    </linearGradient>
    <path id="adledger-m" d="M57.7325841,28.9127434 L57.7325841,28.1120354 C57.0653274,12.7635929 44.2565664,0.499415929 28.8932389,0.499415929 C13.2286195,0.499415929 0.276141593,13.250177 0.0302831858,28.9127434 L0.0302831858,29.0667257 C0.0302831858,29.0923894 0.0302831858,29.1231858 0.0302831858,29.1488496 C0.208902655,44.871315 13.1634336,57.7222159 28.8865664,57.7741593 C31.9544071,57.7741593 34.4786903,55.2497735 34.4786903,52.1820354 C34.4786903,49.1142973 31.9544071,46.5899115 28.8865664,46.5899115 C22.6138407,46.5715876 16.7999823,43.2292991 13.6269204,37.8180531 L11.7380708,34.5946903 L52.1686903,34.379115 C55.1682655,34.3370265 57.6376283,31.911292 57.7325841,28.9127434 Z M11.6918761,23.4309735 L13.5396637,20.1870796 C16.6732035,14.6704071 22.5481416,11.2504602 28.8927257,11.2504602 C35.1700708,11.2504602 40.9931681,14.5980354 44.1513451,20.0228319 L46.0401947,23.2461947 L11.6918761,23.4309735 Z"/>
    <linearGradient id="adledger-n" x1="-103.042%" x2="132.325%" y1="-27.891%" y2="91.298%">
      <stop offset="0%" stop-color="#F05658"/>
      <stop offset="100%" stop-color="#614A9E"/>
    </linearGradient>
    <path id="adledger-p" d="M57.8249735,5.60554913 C57.8224071,2.56878613 55.2996637,0.0717225434 52.2354159,0.0717225434 C50.0406549,0.0717225434 48.0399115,1.35306358 47.1386018,3.33687861 L46.1120531,5.54959538 L44.0230265,4.27791908 C39.483115,1.51939884 34.2600354,0.0590057803 28.9348142,0.0590057803 C13.0992743,0.0590057803 0.0682654867,12.9726243 0.0682654867,28.6666358 C0.0682654867,44.3601896 13.0992743,57.2741133 28.9348142,57.2741133 C34.0090442,57.2741133 38.9944779,55.9482636 43.3865664,53.4307514 L46.6253274,51.574104 L46.6253274,59.4127168 C46.5760531,68.8766844 38.8343363,76.6943399 29.2869204,76.9211561 L29.2253274,76.9211561 L28.9789558,76.9211561 C28.973823,76.9211561 28.9686903,76.9211561 28.9635575,76.9211561 C25.8972566,76.9211561 23.374,79.4217295 23.374,82.460578 C23.374,85.4936786 25.8880177,87.9916578 28.9481593,88 L30.2775398,88 C45.5895398,87.2849618 57.7993097,74.6140809 57.814708,59.4228902 L57.8249735,5.60554913 Z M28.9584248,46.1923699 C19.2585664,46.1923699 11.2761239,38.2818821 11.2761239,28.6686705 C11.2761239,19.0553064 19.2585664,11.1449711 28.9584248,11.1449711 C38.6531504,11.1449711 46.6325133,19.0461503 46.6407257,28.6534104 C46.6381593,38.2681988 38.6603363,46.1812301 28.9584248,46.1923699 Z"/>
    <linearGradient id="adledger-q" x1="-290.603%" x2="-55.457%" y1="-68.038%" y2="8.893%">
      <stop offset="0%" stop-color="#F05658"/>
      <stop offset="100%" stop-color="#614A9E"/>
    </linearGradient>
    <path id="adledger-s" d="M34.5531159,5.67168142 C34.5475362,2.60743363 32.0574638,0.0877699115 29.0292029,0.0821238938 L27.7205072,0.0821238938 C12.7004348,0.825345133 0.691376812,13.4303363 0.50673913,28.6458407 L0.50673913,52.1281416 C0.505217391,52.1846018 0.504202899,52.2411133 0.504202899,52.2975735 C0.504202899,55.3667487 3.00036232,57.8922637 6.03318841,57.8922637 C9.06652174,57.8922637 11.5621739,55.3667487 11.5621739,52.2975735 C11.5621739,52.2411133 11.5616667,52.1846018 11.5596377,52.1281416 L11.5596377,28.9127434 C11.6118841,19.3648142 19.2616667,11.4798938 28.6944203,11.2509735 L28.9987681,11.2509735 C29.0058696,11.2509735 29.0124638,11.2509735 29.019058,11.2509735 C32.0473188,11.2509735 34.5424638,8.7359292 34.5531159,5.67168142 Z"/>
    <linearGradient id="adledger-t" x1="-788.238%" x2="-394.048%" y1="-201.198%" y2="-83.113%">
      <stop offset="0%" stop-color="#F05658"/>
      <stop offset="100%" stop-color="#614A9E"/>
    </linearGradient>
    <path id="adledger-v" d="M57.495807,28.9127434 L57.495807,28.1069027 C56.8338947,12.7589735 44.1374912,0.495309735 28.9099474,0.495309735 C13.3812105,0.495309735 0.541333333,13.2486372 0.299666667,28.9127434 L0.299666667,29.0564602 C0.299666667,29.0923894 0.299666667,29.1283186 0.299666667,29.1693805 C0.473666667,44.8871239 13.3069298,57.7371522 28.8875614,57.7946903 C31.9284912,57.7946903 34.4306316,55.2703044 34.4306316,52.2025664 C34.4306316,49.1348283 31.9284912,46.6104425 28.8875614,46.6104425 C22.6698596,46.5921186 16.907,43.2498301 13.7617719,37.8385841 L11.8894912,34.6152212 L51.9654561,34.399646 C54.9519474,34.3652566 57.4118596,31.9246372 57.495807,28.9127434 Z M11.8538772,23.4463717 L13.6905439,20.2024779 C16.7965965,14.6858053 22.62,11.2658584 28.9089298,11.2658584 C35.1312105,11.2658584 40.9032281,14.6134336 44.0337018,20.0382301 L45.9059825,23.2615929 L11.8538772,23.4463717 Z"/>
    <linearGradient id="adledger-w" x1="-375.396%" x2="-140.028%" y1="-165.732%" y2="-46.594%">
      <stop offset="0%" stop-color="#F05658"/>
      <stop offset="100%" stop-color="#614A9E"/>
    </linearGradient>
  </defs>
  <g fill="none" fill-rule="evenodd" transform="translate(28 30)">
    <g transform="translate(0 23)">
      <mask id="adledger-c" fill="#fff">
        <use xlink:href="#adledger-a"/>
      </mask>
      <path fill="url(#adledger-b)" d="M57.753115,52.2 L57.753115,5.65628319 C57.7505487,2.5920354 55.2278053,0.0723716814 52.1635575,0.0723716814 C49.9685398,0.0723716814 47.9681558,1.36530973 47.0669487,3.36707965 L46.0404,5.59982301 L43.9513735,4.31663717 C39.4121292,1.53469027 34.1905381,0.0615929204 28.8665487,0.0615929204 C13.0308035,0.0615929204 0,13.0926018 0,28.9281416 C0,44.7638867 13.0308035,57.7946903 28.8665487,57.7946903 C34.1905381,57.7946903 39.4121292,56.3217982 43.9513735,53.539646 L46.0404,52.2564602 L47.0669487,54.4892035 C47.9681558,56.4908708 49.9685398,57.7840655 52.1635575,57.7840655 C55.2278053,57.7840655 57.7505487,55.2642478 57.753115,52.2 Z M28.8867717,46.6104425 C19.1962549,46.5963788 11.2301345,38.6186584 11.2301345,28.9281416 C11.2301345,19.2277699 19.2122177,11.2458407 28.9124354,11.2458407 C38.6068018,11.2458407 46.5862673,19.218531 46.5947363,28.9127434 C46.5919133,38.6223027 38.6014124,46.6104425 28.8919044,46.6104425 L28.8867717,46.6104425 Z" mask="url(#adledger-c)"/>
    </g>
    <g transform="translate(65)">
      <mask id="adledger-f" fill="#fff">
        <use xlink:href="#adledger-d"/>
      </mask>
      <path fill="url(#adledger-e)" d="M51.9908947,0.463584906 C48.9535263,0.469188679 46.4559649,2.97 46.4503684,6.01132075 L46.4503684,29.2058491 L43.2400175,27.3464151 C38.8915439,24.8323585 33.9574737,23.5088491 28.9364035,23.5088491 C13.2423158,23.5088491 0.328157895,36.4398113 0.328157895,52.1543208 C0.328157895,67.8686264 13.2423158,80.7996396 28.9364035,80.7996396 C34.208807,80.7996396 39.3799649,79.3402132 43.8759825,76.5832075 L45.9466842,75.3096226 L46.9642281,77.5256604 C47.8576316,79.5123509 49.8408246,80.7958698 52.0163333,80.7958698 C55.0537018,80.7958698 57.5543158,78.2949057 57.5568596,75.2535849 L57.5568596,6.01641509 C57.5543158,2.96949057 55.0496316,0.463584906 52.0061579,0.463584906 C52.0010702,0.463584906 51.9959825,0.463584906 51.9908947,0.463584906 Z M28.9231754,69.6956604 C19.3084035,69.6956604 11.3959825,61.7733 11.3959825,52.1456604 C11.3959825,42.5178679 19.3084035,34.5956604 28.9231754,34.5956604 C38.5328596,34.5956604 46.4422281,42.5086981 46.4503684,52.1303774 C46.4478246,61.7595962 38.5399825,69.6845038 28.9231754,69.6956604 Z" mask="url(#adledger-f)"/>
    </g>
    <g transform="translate(213)">
      <mask id="adledger-i" fill="#fff">
        <use xlink:href="#adledger-g"/>
      </mask>
      <path fill="url(#adledger-h)" d="M51.9959825,0.463584906 C48.958614,0.469188679 46.4610526,2.97 46.4554561,6.01132075 L46.4554561,29.2058491 L43.2451053,27.3464151 C38.8961228,24.8313396 33.9610351,23.5073208 28.9384386,23.5073208 C13.2448596,23.5073208 0.330192982,36.438283 0.330192982,52.1527925 C0.330192982,67.8670981 13.2448596,80.7981113 28.9384386,80.7981113 C34.2103333,80.7981113 39.3804737,79.3392453 43.8759825,76.5832075 L45.9466842,75.3096226 L46.9642281,77.5256604 C47.8576316,79.5123509 49.8408246,80.7958698 52.0163333,80.7958698 C55.0537018,80.7958698 57.5543158,78.2949057 57.5568596,75.2535849 L57.5568596,6.01641509 C57.5543158,2.96949057 55.0496316,0.463584906 52.0061579,0.463584906 C52.0031053,0.463584906 51.9995439,0.463584906 51.9959825,0.463584906 Z M28.9282632,69.6956604 C19.3134912,69.6956604 11.4010702,61.7733 11.4010702,52.1456604 C11.4010702,42.5178679 19.3134912,34.5956604 28.9282632,34.5956604 C38.5379474,34.5956604 46.4473158,42.5086981 46.4554561,52.1303774 C46.4529123,61.7595962 38.5450702,69.6845038 28.9282632,69.6956604 Z" mask="url(#adledger-i)"/>
    </g>
    <g transform="translate(130)">
      <mask id="adledger-l" fill="#fff">
        <use xlink:href="#adledger-j"/>
      </mask>
      <path fill="url(#adledger-k)" d="M5.5345,0.463584906 C2.5495,0.469188679 0.095,2.97 0.0895,6.01132075 L0.0895,75.2433962 C0.0895,78.2881811 2.549,80.7936792 5.537,80.7936792 C8.5255,80.7936792 10.9845,78.2881811 10.9845,75.2433962 L10.9845,6.01641509 C10.982,2.9715283 8.5235,0.466132075 5.5345,0.463584906 Z" mask="url(#adledger-l)"/>
    </g>
    <g transform="translate(149 23)">
      <mask id="adledger-o" fill="#fff">
        <use xlink:href="#adledger-m"/>
      </mask>
      <path fill="url(#adledger-n)" d="M57.7325841,28.9127434 L57.7325841,28.1120354 C57.0653274,12.7635929 44.2565664,0.499415929 28.8932389,0.499415929 C13.2286195,0.499415929 0.276141593,13.250177 0.0302831858,28.9127434 L0.0302831858,29.0667257 C0.0302831858,29.0923894 0.0302831858,29.1231858 0.0302831858,29.1488496 C0.208902655,44.871315 13.1634336,57.7222159 28.8865664,57.7741593 C31.9544071,57.7741593 34.4786903,55.2497735 34.4786903,52.1820354 C34.4786903,49.1142973 31.9544071,46.5899115 28.8865664,46.5899115 C22.6138407,46.5715876 16.7999823,43.2292991 13.6269204,37.8180531 L11.7380708,34.5946903 L52.1686903,34.379115 C55.1682655,34.3370265 57.6376283,31.911292 57.7325841,28.9127434 Z M11.6918761,23.4309735 L13.5396637,20.1870796 C16.6732035,14.6704071 22.5481416,11.2504602 28.8927257,11.2504602 C35.1700708,11.2504602 40.9931681,14.5980354 44.1513451,20.0228319 L46.0401947,23.2461947 L11.6918761,23.4309735 Z" mask="url(#adledger-o)"/>
    </g>
    <g transform="translate(279 23)">
      <mask id="adledger-r" fill="#fff">
        <use xlink:href="#adledger-p"/>
      </mask>
      <path fill="url(#adledger-q)" d="M57.8249735,5.60554913 C57.8224071,2.56878613 55.2996637,0.0717225434 52.2354159,0.0717225434 C50.0406549,0.0717225434 48.0399115,1.35306358 47.1386018,3.33687861 L46.1120531,5.54959538 L44.0230265,4.27791908 C39.483115,1.51939884 34.2600354,0.0590057803 28.9348142,0.0590057803 C13.0992743,0.0590057803 0.0682654867,12.9726243 0.0682654867,28.6666358 C0.0682654867,44.3601896 13.0992743,57.2741133 28.9348142,57.2741133 C34.0090442,57.2741133 38.9944779,55.9482636 43.3865664,53.4307514 L46.6253274,51.574104 L46.6253274,59.4127168 C46.5760531,68.8766844 38.8343363,76.6943399 29.2869204,76.9211561 L29.2253274,76.9211561 L28.9789558,76.9211561 C28.973823,76.9211561 28.9686903,76.9211561 28.9635575,76.9211561 C25.8972566,76.9211561 23.374,79.4217295 23.374,82.460578 C23.374,85.4936786 25.8880177,87.9916578 28.9481593,88 L30.2775398,88 C45.5895398,87.2849618 57.7993097,74.6140809 57.814708,59.4228902 L57.8249735,5.60554913 Z M28.9584248,46.1923699 C19.2585664,46.1923699 11.2761239,38.2818821 11.2761239,28.6686705 C11.2761239,19.0553064 19.2585664,11.1449711 28.9584248,11.1449711 C38.6531504,11.1449711 46.6325133,19.0461503 46.6407257,28.6534104 C46.6381593,38.2681988 38.6603363,46.1812301 28.9584248,46.1923699 Z" mask="url(#adledger-r)"/>
    </g>
    <g transform="translate(409 23)">
      <mask id="adledger-u" fill="#fff">
        <use xlink:href="#adledger-s"/>
      </mask>
      <path fill="url(#adledger-t)" d="M34.5531159,5.67168142 C34.5475362,2.60743363 32.0574638,0.0877699115 29.0292029,0.0821238938 L27.7205072,0.0821238938 C12.7004348,0.825345133 0.691376812,13.4303363 0.50673913,28.6458407 L0.50673913,52.1281416 C0.505217391,52.1846018 0.504202899,52.2411133 0.504202899,52.2975735 C0.504202899,55.3667487 3.00036232,57.8922637 6.03318841,57.8922637 C9.06652174,57.8922637 11.5621739,55.3667487 11.5621739,52.2975735 C11.5621739,52.2411133 11.5616667,52.1846018 11.5596377,52.1281416 L11.5596377,28.9127434 C11.6118841,19.3648142 19.2616667,11.4798938 28.6944203,11.2509735 L28.9987681,11.2509735 C29.0058696,11.2509735 29.0124638,11.2509735 29.019058,11.2509735 C32.0473188,11.2509735 34.5424638,8.7359292 34.5531159,5.67168142 Z" mask="url(#adledger-u)"/>
    </g>
    <g transform="translate(344 23)">
      <mask id="adledger-x" fill="#fff">
        <use xlink:href="#adledger-v"/>
      </mask>
      <path fill="url(#adledger-w)" d="M57.495807,28.9127434 L57.495807,28.1069027 C56.8338947,12.7589735 44.1374912,0.495309735 28.9099474,0.495309735 C13.3812105,0.495309735 0.541333333,13.2486372 0.299666667,28.9127434 L0.299666667,29.0564602 C0.299666667,29.0923894 0.299666667,29.1283186 0.299666667,29.1693805 C0.473666667,44.8871239 13.3069298,57.7371522 28.8875614,57.7946903 C31.9284912,57.7946903 34.4306316,55.2703044 34.4306316,52.2025664 C34.4306316,49.1348283 31.9284912,46.6104425 28.8875614,46.6104425 C22.6698596,46.5921186 16.907,43.2498301 13.7617719,37.8385841 L11.8894912,34.6152212 L51.9654561,34.399646 C54.9519474,34.3652566 57.4118596,31.9246372 57.495807,28.9127434 Z M11.8538772,23.4463717 L13.6905439,20.2024779 C16.7965965,14.6858053 22.62,11.2658584 28.9089298,11.2658584 C35.1312105,11.2658584 40.9032281,14.6134336 44.0337018,20.0382301 L45.9059825,23.2615929 L11.8538772,23.4463717 Z" mask="url(#adledger-x)"/>
    </g>
  </g>
</svg>
