<svg height="150" viewBox="0 0 500 150" width="500" xmlns="http://www.w3.org/2000/svg"><g fill="none" transform="translate(0 35)"><g fill="#17242c"><path d="m0 50.4580645c0-16.596371 12.064-28.3826613 28.864-28.3826613 11.168 0 17.92 4.8100807 21.536 9.7475807l-9.344 8.7600806c-2.592-3.8225806-6.528-5.8294355-11.488-5.8294355-8.672 0-14.752 6.2754033-14.752 15.7044355 0 9.4290323 6.08 15.8318549 14.752 15.8318549 4.96 0 11.488-5.8294355 11.488-5.8294355l9.344 8.6326613c-3.616 5.0649193-10.368 9.875-21.536 9.875-16.8 0-28.864-11.7862904-28.864-28.5100807z"/><path d="m54.272 78.968v-78.649h16.032v78.649z"/><path d="m74.176 50.3306452c0-15.7044355 11.616-28.3826613 28.192-28.3826613 16.224 0 27.296 12.1366935 27.296 29.8479838v3.1536291h-40.512c.896 6.8487903 6.432 12.5826613 15.68 12.5826613 4.608 0 11.04-2.0068549 14.56-5.3834678l6.304 9.2060484c-5.408 4.9375-13.984 7.5177419-22.432 7.5177419-16.576-.0318548-29.088-11.1173387-29.088-28.5419354zm28.192-17.0423387c-8.896 0-12.736 6.6258064-13.408 12.0092741h26.848c-.384-5.1604838-3.968-12.0092741-13.44-12.0092741z"/><path d="m147.648 78.968-22.944-56.893h16.096l14.912 39.564 14.912-39.564h16.224l-22.944 56.893z"/><path d="m181.568 50.4580645c0-15.7044355 11.616-28.3826613 28.192-28.3826613 16.224 0 27.296 12.1366936 27.296 29.8479839v3.153629h-40.512c.896 6.8487904 6.432 12.5826613 15.68 12.5826613 4.608 0 11.04-2.0068548 14.56-5.3834677l6.304 9.2060484c-5.408 4.9375-13.984 7.5177419-22.432 7.5177419-16.576-.0318548-29.088-11.1491935-29.088-28.5419355zm28.192-17.0741935c-8.896 0-12.736 6.6258064-13.408 12.0092742h26.848c-.384-5.1604839-3.968-12.0092742-13.44-12.0092742zm31.136 45.5842742v-55.5229839h14.656v7.5814516c3.936-4.9375 10.848-8.9512097 17.792-8.9512097v14.2391129c-1.024-.2229838-2.432-.3504032-4.032-.3504032-4.864 0-11.328 2.771371-13.728 6.3072581v36.6649193h-14.688z"/></g><path d="m286.144 64.3149194v-27.9685484h-8.928v-14.3028226h8.928v-13.41088711h14.272v13.44274191h10.912v14.3028226h-10.912v24.1778226c0 3.3129032 1.792 5.8931451 4.896 5.8931451 2.112 0 4.128-.7645161 4.896-1.560887l3.008 10.6395161c-2.112 1.8794355-5.92 3.4403226-11.808 3.4403226-9.92 0-15.264-5.1286291-15.264-14.6532258z" fill="#f94c00"/><path d="m312.576 50.4580645c0-15.7044355 11.616-28.4145161 28.192-28.4145161 16.224 0 27.296 12.1366935 27.296 29.8479839v3.153629h-40.48c.896 6.8487903 6.432 12.5826613 15.68 12.5826613 4.608 0 11.04-2.0068549 14.56-5.3834678l6.304 9.2060484c-5.408 4.9375-13.984 7.517742-22.432 7.517742-16.608 0-29.12-11.1173387-29.12-28.5100807zm28.192-17.0741935c-8.896 0-12.736 6.6258064-13.408 12.0092742h26.848c-.352-5.1604839-3.968-12.0092742-13.44-12.0092742zm31.168 17.0741935c0-16.596371 12.064-28.3826613 28.864-28.3826613 11.168 0 17.92 4.8100807 21.536 9.7475807l-9.344 8.7600806c-2.592-3.8225806-6.528-5.8294355-11.488-5.8294355-8.672 0-14.752 6.2754033-14.752 15.7044355 0 9.4290323 6.08 15.8318549 14.752 15.8318549 4.96 0 8.896-2.2298388 11.488-5.8294355l9.344 8.6326613c-3.616 5.0330645-10.368 9.875-21.536 9.875-16.8 0-28.864-11.7862904-28.864-28.5100807zm92.992 28.4782258v-34.6580645c0-7.9-4.16-7.9637097-10.656-7.9637097-5.792 0-10.432.8600807-13.024 4.3004033v38.3213709h-15.04v-78.64959675h15.04v29.11532255c3.68-4.3641129 10.784-7.3584677 20.128-7.3584677 12.544 0 18.592 5.3516129 18.592 16.4370968v40.4556451z" fill="#f94c00"/><g fill="#17242c" transform="translate(486.047 65.053)"><path d="m6.35633808 6.16133538c.33861493 0 .58488031-.06724021.73263953-.19560795.14775925-.12225497.2277955-.33008843.2277955-.62350033 0-.28729922-.08003625-.48901992-.2277955-.61738762-.14775922-.12225498-.3940246-.18338246-.73263953-.18338246h-.68954307v1.61987836zm-.68954307 1.11863301v2.38397191h-1.63766487v-6.30224375h2.49959373c.83730232 0 1.44680917.14059322 1.83467715.42177964.39402463.2750737.58488031.7151916.58488031 1.32035371 0 .41566688-.09850614.75798082-.3016751 1.02694174-.20316896.26284819-.50484405.46456889-.91733857.58682386.22779547.05501474.42480777.17115696.60335019.34842667.17854242.17726972.3570848.44623066.53562722.81299556l.89271203 1.78492257h-1.74232763l-.77573598-1.56486363c-.15391588-.31175017-.31398835-.53180911-.47406086-.64183861-.1600725-.11614219-.37555472-.17726967-.64029002-.17726967z"/><path d="m11.453983 6.59943925c0-2.73560064-2.23356396-4.95324315-4.98880475-4.95324315-2.75524078 0-4.98880476 2.21764251-4.98880476 4.95324315 0 2.73560067 2.23356398 4.95324315 4.98880476 4.95324315 2.75524079 0 4.98880475-2.21764248 4.98880475-4.95324315zm-11.4029823 0c0-3.51720083 2.8717251-6.36845548 6.41417755-6.36845548s6.41417755 2.85125465 6.41417755 6.36845548c0 3.51720085-2.8717251 6.36845555-6.41417755 6.36845555s-6.41417755-2.8512547-6.41417755-6.36845555z"/></g></g></svg>