<svg height="33" viewBox="0 0 33 33" width="33" xmlns="http://www.w3.org/2000/svg"><path d="m152.608 331.455c-8.994 0-16.288 7.293-16.288 16.29 0 7.197 4.667 13.302 11.14 15.456.815.15 1.112-.353 1.112-.785 0-.387-.014-1.411-.022-2.77-4.531.984-5.487-2.184-5.487-2.184-.741-1.882-1.809-2.383-1.809-2.383-1.479-1.01.112-.99.112-.99 1.635.115 2.495 1.679 2.495 1.679 1.453 2.489 3.813 1.77 4.741 1.353.148-1.052.569-1.77 1.034-2.177-3.617-.411-7.42-1.809-7.42-8.051 0-1.778.635-3.233 1.677-4.371-.168-.412-.727-2.069.16-4.311 0 0 1.367-.438 4.479 1.67 1.299-.362 2.693-.542 4.078-.549 1.384.007 2.777.187 4.078.549 3.11-2.108 4.475-1.67 4.475-1.67.889 2.242.33 3.899.163 4.311 1.044 1.138 1.674 2.593 1.674 4.371 0 6.258-3.809 7.635-7.437 8.038.584.503 1.105 1.497 1.105 3.016 0 2.178-.02 3.935-.02 4.469 0 .436.294.943 1.12.784 6.468-2.159 11.131-8.26 11.131-15.455 0-8.997-7.294-16.29-16.291-16.29" fill="#fffffe" fill-rule="evenodd" transform="translate(-136 -331)"/></svg>