<svg height="402" viewBox="0 0 640 402" width="640" xmlns="http://www.w3.org/2000/svg" xmlns:xlink="http://www.w3.org/1999/xlink"><filter id="a" height="110.1%" width="106%" x="-3%" y="-5.1%"><feGaussianBlur in="SourceGraphic" stdDeviation="5.218"/></filter><filter id="b" height="130.3%" width="117.1%" x="-10.5%" y="-7.6%"><feOffset dx="-10" dy="30" in="SourceAlpha" result="shadowOffsetOuter1"/><feGaussianBlur in="shadowOffsetOuter1" result="shadowBlurOuter1" stdDeviation="10"/><feColorMatrix in="shadowBlurOuter1" result="shadowMatrixOuter1" values="0 0 0 0 0   0 0 0 0 0   0 0 0 0 0  0 0 0 0.304489357 0"/><feMerge><feMergeNode in="shadowMatrixOuter1"/><feMergeNode in="SourceGraphic"/></feMerge></filter><g fill="none" fill-rule="evenodd" transform="translate(10)"><g transform="translate(0 32)"><path d="m.5 204.706 262.5-154.293 262.5 154.293-262.5 154.294z" fill="#000" filter="url(#a)" opacity=".303"/><path d="m263 329-262.5-154.294v-20l262.5 154.294z" fill="#488d5f"/><path d="m263 329 262.5-154.294v-20l-262.5 154.294z" fill="#96ffb9"/><path d="m.5 154.706 262.5-154.293 262.5 154.293-262.5 154.294z" fill="#82efa6"/></g><g filter="url(#b)" transform="translate(95)"><g transform="translate(0 1)"><path d="m524.5 174.5-262.5-154.294v-20l262.5 154.294z" fill="#d3d3d3"/><path d="m.5 174.5 262.5-154.294v-20l-262.5 154.294z" fill="#e8e8e8"/></g><path d="m262.5 329.5-262.5-154.294v-20l262.5 154.294z" fill="#d3d3d3"/><path d="m262.5 329.5 262.5-154.294v-20l-262.5 154.294z" fill="#e8e8e8"/><path d="m9.86715155 155.206371 252.63284845 148.493863 252.632848-148.493863-252.632848-148.49386229z" stroke="#fff" stroke-width="10"/></g></g></svg>