<svg height="200" viewBox="0 0 197 200" width="197" xmlns="http://www.w3.org/2000/svg"><g fill="none"><path d="m98.0162 0c54.133 0 98.016 44.7605 98.016 99.9755 0 55.2155-43.883 99.976-98.016 99.976s-98.016-44.7605-98.016-99.976c0-55.215 43.883-99.9755 98.016-99.9755" fill="#c10029"/><path d="m146.4124 52.7427h-17.5275c-.9 0-1.743.4-2.3125 1.0975l-.0415.051-28.5145 43.4825-28.4625-43.4275-.077-.105c-.569-.698-1.412-1.0985-2.3135-1.0985h-17.5435c-1.646 0-2.9855 1.3395-2.9855 2.9855v88.495c0 1.646 1.3395 2.9855 2.9855 2.9855h12.1155c1.6465 0 2.9855-1.3395 2.9855-2.9855v-63.312l30.848 45.702.065.0875c.569.7025 1.4135 1.106 2.317 1.107h.003c.903 0 1.747-.402 2.3165-1.1025l.0345-.0425 31.0065-45.764v63.3245c0 1.646 1.339 2.9855 2.9855 2.9855h12.1155c1.646 0 2.9855-1.3395 2.9855-2.9855v-88.495c0-1.646-1.3395-2.9855-2.9855-2.9855" fill="#fff"/></g></svg>