<svg version="1.1" id="Layer_1" xmlns="http://www.w3.org/2000/svg" xmlns:xlink="http://www.w3.org/1999/xlink" x="0px" y="0px" viewBox="0 0 325.7 70" style="enable-background:new 0 0 325.7 70;" xml:space="preserve">
<style type="text/css">
	.logo-color1{fill:#7FA1B6;}
	.logo-color2{fill:#A4D498;}
	.logo-color3{fill:#72C267;}
	.logo-color4{fill:#367D3C;}
</style>
<g id="egauW1.tif">
	<g id="XMLID_1_">
		<path id="XMLID_154_" class="logo-color1" d="M2.3,65.2c1.1-1.1,2.1-2.2,3.2-3.2c1.7-1.8,3.5-3.5,5.2-5.3c1-1.1,2.1-2.2,3.2-3.4
			c0.8,0.3,1.5,0.5,2.2,0.7c1,3.9,1.9,7.6,2.9,11.5c-5.6,0-11.1,0-16.6,0C2.3,65.3,2.3,65.2,2.3,65.2z"></path>
		<path id="XMLID_151_" class="logo-color1" d="M199.1,28c3.2,5.8,6.5,11.3,9.7,17.2c-3.6,0-6.9,0-10.4,0c-2.9-5.3-5.8-10.7-8.8-16.2
			c-1.6,0-3.1,0-4.9,0c0,2.6,0,5.3,0,8c0,2.7,0,5.3,0,7.9c-1.1,0.4-7.9,0.4-9,0.1c0-14.1,0-28.1,0-42.4c1.4-0.2,2.7-0.4,4.1-0.6
			c4.4-0.6,8.9-0.6,13.3-0.5c2.7,0.1,5.3,0.5,7.8,1.7c3.3,1.5,5.2,4.2,5.9,7.6c0.6,3,0.6,6-0.1,9c-0.9,3.7-3.1,6.3-6.7,7.7
			C199.7,27.7,199.5,27.8,199.1,28z M184.8,21.6c0.5,0,0.9,0.1,1.2,0.1c1.8,0,3.7,0.1,5.5,0c1.1-0.1,2.2-0.3,3.3-0.6
			c1.3-0.4,2.3-1.3,2.9-2.7c0.6-1.5,0.6-3,0.5-4.6c-0.2-2.6-1.5-4.1-3.9-4.8c-2.4-0.6-4.8-0.5-7.3-0.4c-0.7,0-1.4,0.2-2.1,0.3
			C184.8,13.2,184.8,17.3,184.8,21.6z"></path>
		<path id="XMLID_150_" class="logo-color1" d="M243.7,45.2c-0.4-1.5-0.3-28.1,0.2-30.6c0.7-0.3,1.5-0.7,2.4-1c4.4-1.6,9-2.2,13.7-1.9
			c1.7,0.1,3.4,0.4,5,1.3c0.7,0.4,1.3,0.4,2.1,0.1c3.5-1.2,7.2-1.7,10.9-1.4c1.6,0.1,3.3,0.5,4.8,1.1c2.6,1,4.2,3,4.8,5.7
			c0.4,1.7,0.7,3.5,0.7,5.2c0.1,6.7,0,13.4,0,20c0,0.4,0,0.9-0.1,1.3c-0.9,0.4-6.8,0.5-8.3,0.1c0-0.5-0.1-1-0.1-1.5c0-6,0-12,0-18
			c0-1.5-0.3-3-0.6-4.5c-0.2-1-0.9-1.7-1.9-2.1c-2.5-1.1-5-0.6-7.3,0.3c0,4.4,0,8.7,0,13c0,4.2,0,8.5,0,12.6c-1,0.4-6.9,0.4-8.3,0.1
			c0-0.5-0.1-1-0.1-1.5c0-6.3,0-12.6,0-18.8c0-1.1-0.2-2.3-0.4-3.4c-0.3-1.5-1.4-2.3-2.9-2.7c-2-0.5-3.9-0.1-5.9,0.6
			c-0.1,1.1-0.3,2.1-0.3,3.2c0,7,0,14.1,0,21.1c0,0.5-0.1,1-0.1,1.6C249.1,45.2,246.4,45.2,243.7,45.2z"></path>
		<path id="XMLID_147_" class="logo-color1" d="M302.6,60.6c-2.9,0-5.5,0-8.3,0c-0.1-0.5-0.1-0.9-0.1-1.3c0-13.4,0-26.8,0-40.2
			c0-1.4,0.2-2.9,0.3-4.4c0.6-0.3,1.3-0.7,2-1c5.9-2.3,12-2.7,18.1-1.4c3.8,0.8,6.4,3.1,7.7,6.8c0.8,2.2,1.2,4.5,1.2,6.8
			c0,2.7,0,5.4-0.3,8c-0.2,2.8-1.1,5.5-3,7.7c-1,1.2-2.2,2-3.5,2.6c-1.7,0.7-3.5,1-5.3,1.3c-2.8,0.3-5.5-0.1-8.2-0.4
			c-0.1,0-0.2,0-0.6,0.1C302.6,50.3,302.6,55.3,302.6,60.6z M302.5,38.1c0.5,0.2,0.9,0.3,1.3,0.4c1.8,0.4,3.6,0.5,5.5,0.3
			c3.1-0.4,5.1-2.4,5.5-5.4c0.4-3.1,0.4-6.2,0-9.3c-0.4-3.1-2.2-5.2-5.1-5.5c-1.5-0.2-3.1,0-4.7,0.1c-0.7,0-1.4,0.3-2.2,0.6
			C302.3,25.5,302.7,31.7,302.5,38.1z"></path>
		<path id="XMLID_146_" class="logo-color2" d="M63,2.3c0,9.7,0,19.2,0,28.8c-12.1,7-25.1,11.5-39.1,13.4c-0.2-0.3-0.3-0.6-0.5-0.8
			c0.1-0.2,0.2-0.4,0.3-0.5c1.9-2,3.9-4,5.8-6.1c4.4-4.6,8.9-9.2,13.3-13.8c2-2.1,4-4.1,6-6.2c4.3-4.5,8.6-9,13-13.5
			C62.1,3.2,62.4,2.8,63,2.3z"></path>
		<path id="XMLID_143_" class="logo-color1" d="M230.1,23.5c0.1-3.3-1.6-4.8-4.5-5c-1.8-0.1-3.7,0-5.5,0.1c-2.1,0.1-4.3,0.4-6.4,0.6
			c-0.3,0-0.6,0-1.1-0.1c-0.2-2-0.5-4-0.7-6.1c0.5-0.1,1-0.3,1.4-0.4c4.4-0.7,8.9-1.2,13.4-1c2.3,0.1,4.6,0.4,6.8,1.4
			c3.3,1.6,4.9,4.4,5,7.8c0.2,6.4,0.1,12.8,0,19.2c0,0.8-0.2,1.6-0.3,2.5c-1.4,0.9-3,1.5-4.6,1.9c-2.4,0.6-4.8,0.9-7.2,1.1
			c-2.5,0.2-5,0-7.5-0.3c-1.5-0.2-2.9-0.8-4.3-1.5c-1.8-1-2.9-2.6-3.5-4.6c-0.9-3.2-0.9-6.3,0.4-9.4c0.7-1.6,1.9-2.9,3.4-3.8
			c2.2-1.3,4.7-1.7,7.2-1.9c2.5-0.2,4.9-0.3,7.4-0.5C229.7,23.6,229.9,23.5,230.1,23.5z M230.3,29.2c-1.5,0.1-2.7,0-3.9,0.2
			c-1.7,0.2-3.3,0.5-4.9,1c-1.6,0.5-2.4,1.7-2.4,3.3c0,0.6,0,1.2,0,1.8c0.1,1.7,1.1,2.9,2.7,3.3c2.5,0.5,5,0.3,7.5-0.3
			c0.2-0.1,0.4-0.2,0.7-0.3C230.5,35.3,230.2,32.4,230.3,29.2z"></path>
		<path id="XMLID_142_" class="logo-color3" d="M24,48.4c0.2-0.5,0.2-0.8,0.3-1.1c13.6-1.8,26.4-6.2,38.3-12.8c0.4,0.9,0.5,23.6,0.1,25.4
			C49.5,57.6,36.7,53.7,24,48.4z"></path>
		<path id="XMLID_139_" class="logo-color1" d="M167.4,29.8c-7.8,1.2-15.7,1.6-23.6,1.8c0.2,2.7,0.6,5.2,2.4,7.3c1,1.2,2.4,1.8,3.8,2.1
			c2.6,0.6,5.1,0.7,7.7,0.4c2.6-0.3,5.2-0.5,7.9-0.7c0.1,0,0.2,0,0.6,0.1c0.1,1.1,0.3,2.3,0.4,3.7c-1.8,0.3-3.5,0.6-5.2,0.7
			c-2.4,0.2-4.8,0.4-7.2,0.5c-2.9,0.1-5.8-0.1-8.4-1.4c-2.6-1.2-4.3-3.3-5.4-5.9c-0.9-2.3-1.4-4.7-1.4-7.3c0-2.1-0.1-4.1,0-6.2
			c0.1-2.2,0.5-4.4,1.3-6.5c1.3-3.4,3.9-5.4,7.4-6.2c3.8-0.9,7.6-0.9,11.4,0.1c3.9,1,6.5,3.4,7.7,7.3c1,3.2,0.9,6.5,0.7,9.9
			C167.6,29.5,167.5,29.6,167.4,29.8z M162.8,26.7c0-1.6,0.1-3,0-4.3c-0.4-3.6-2.5-5.7-6-6.5c-2.5-0.5-5-0.5-7.5,0.2
			c-2.3,0.6-3.9,2.1-4.7,4.4c-0.7,1.9-1,3.9-0.9,5.9c0,0.5,0.1,1,0.1,1.6C150.2,27.6,156.4,27.5,162.8,26.7z"></path>
		<path id="XMLID_138_" class="logo-color4" d="M23.3,65.3c-1.6-3.8-2.6-7.8-3.2-11.8c1-0.8,1.9-1.6,3-2.5c12.8,5.4,26.1,9.3,39.8,11.7
			c0,0.9,0,1.7,0,2.6C49.7,65.3,36.6,65.3,23.3,65.3z"></path>
		<path id="XMLID_137_" class="logo-color1" d="M123,39.4c1.7-4.6,3.5-9.1,5.2-13.7c1.7-4.5,3.4-9,5.1-13.6c1.6,0,3.1,0,4.8,0
			c-0.1,0.5-0.2,0.8-0.3,1.1c-2.4,6.1-4.7,12.2-7.1,18.3c-1.5,3.8-3,7.7-4.5,11.5c-0.5,1.3-1.3,2.3-2.8,2.5
			c-1.2,0.2-2.3-0.1-3.1-1.1c-0.5-0.6-0.8-1.3-1.1-2c-3.8-9.7-7.5-19.5-11.2-29.2c-0.1-0.3-0.2-0.6-0.3-0.9c0.9-0.4,3.3-0.4,4.9-0.1
			c3.4,9,6.8,18.1,10.2,27.1C122.9,39.4,123,39.4,123,39.4z"></path>
		<path id="XMLID_136_" class="logo-color1" d="M96.5,41.2c0,1.3,0,2.5,0,3.9c-0.4,0.1-0.8,0.2-1.2,0.2c-4.2,0-8.5,0.1-12.7,0
			c-1.5,0-2.9-0.3-4.4-0.7c-4-1.1-5.8-3.8-5.9-7.9c-0.1-3.3,0-6.6,0-9.8c0-7.7,0-15.4,0-23.2c0-0.5,0-1,0-1.7
			c1.7-0.3,3.2-0.2,4.9-0.1c0,0.6,0.1,1.2,0.1,1.7c0,9.8,0,19.7,0,29.5c0,0.7,0,1.4,0,2.2c0.1,3.6,1.8,5.5,5.4,5.6
			C86.9,41,91,41,95,41.1C95.5,41.1,95.9,41.2,96.5,41.2z"></path>
		<path id="XMLID_135_" class="logo-color1" d="M104,12.3c0,10.9,0,21.8,0,32.8c-1.6,0.3-3,0.2-4.5,0.1c-0.3-1-0.4-31.6-0.1-32.9
			C100.3,12,102.7,12,104,12.3z"></path>
		<path id="XMLID_134_" class="logo-color1" d="M250.5,65.3c-0.7,0-1.1,0-1.6,0c0-0.5-0.1-0.9-0.1-1.3c0-1.3,0-2.6,0-4
			c-0.1-2.1-1.4-2.8-3.5-1.6c0,2.2,0,4.4,0,6.8c-0.6,0-1,0.1-1.6,0.1c-0.1-0.5-0.1-0.9-0.1-1.4c0-1.2,0-2.4,0-3.6
			c0-2.4-0.7-2.9-3.2-2.2c0,0.4-0.1,0.8-0.2,1.2c0,1.5,0,3,0,4.6c0,0.4-0.1,0.9-0.1,1.4c-0.6,0-1.1,0-1.8,0c0-2.8-0.2-5.4,0.3-8.2
			c1.9-0.8,3.9-0.9,5.6-0.4c1.4-0.1,2.6-0.3,3.8-0.3c1.4,0,2.1,0.6,2.4,2c0.2,0.9,0.2,1.7,0.2,2.6C250.5,62.5,250.5,63.8,250.5,65.3
			z"></path>
		<path id="XMLID_133_" class="logo-color1" d="M214.9,65.3c-0.6,0-1,0-1.5,0c-0.5-2.3,0.3-4.6-0.5-6.9c-1-0.7-2-0.6-3.1-0.1
			c0,2.3,0,4.6,0,7c-0.6,0-1,0.1-1.6,0.1c-0.1-0.5-0.1-0.9-0.1-1.4c0-1.2,0-2.4,0-3.6c0-2.4-0.7-2.9-3.2-2.3c0,0.4-0.1,0.9-0.2,1.3
			c0,1.5,0,3,0,4.4c0,0.4-0.1,0.9-0.1,1.4c-0.5,0-0.9,0-1.3,0c-0.3-0.9-0.4-6.7-0.1-8.2c1.8-1,3.8-0.8,5.5-0.4
			c1.5-0.1,2.7-0.2,3.9-0.2c1.3,0,1.9,0.5,2.3,1.7c0.1,0.2,0.1,0.4,0.1,0.6C214.9,60.9,214.9,63,214.9,65.3z"></path>
		<path id="XMLID_130_" class="logo-color1" d="M254.3,65.7c0,0.8,0,1.7,0,2.7c-0.6,0-1,0.1-1.4,0.1c-0.4-1-0.5-9.9-0.1-11.5
			c0.6-0.2,1.3-0.4,2-0.5c0.8-0.1,1.6-0.1,2.4,0c1.3,0.1,2.4,1,2.8,2.3c0.4,1.5,0.4,3,0,4.5c-0.4,1.4-1.3,2.1-2.8,2.2
			c-0.8,0-1.7,0-2.5,0.1C254.7,65.5,254.6,65.6,254.3,65.7z M254.4,63.8c0.6,0.1,1.1,0.3,1.5,0.3c1.3,0,2.3-0.4,2.4-1.7
			c0.1-0.9,0.1-1.9,0-2.9c-0.1-0.7-0.5-1.3-1.2-1.5c-0.9-0.2-1.8-0.3-2.7,0.3C254.4,60.1,254.4,61.9,254.4,63.8z"></path>
		<path id="XMLID_127_" class="logo-color1" d="M140.6,58c0-0.4-0.1-0.8-0.1-1.2c0.5-0.1,0.9-0.3,1.3-0.3c1,0,2-0.1,3,0
			c1.7,0.1,2.5,0.9,2.5,2.6c0,1.9,0,3.7,0,5.6c-0.3,0.2-0.6,0.4-0.8,0.5c-1.5,0.5-3.1,0.4-4.6,0.2c-1.2-0.1-1.8-0.9-1.8-2.1
			c0-0.3,0-0.6,0-1c0.1-1.2,0.5-1.8,1.7-2.2c0.6-0.2,1.2-0.2,1.8-0.2c0.7-0.1,1.3-0.2,2-0.3c-0.1-1.2-0.4-1.5-1.3-1.6
			C143,57.9,141.8,58,140.6,58z M142,63.6c1.1,0.8,2.2,0.6,3.4,0.1c0-0.9,0-1.7,0-2.5c-0.7,0-1.3,0-1.9,0
			C141.9,61.3,141.5,61.9,142,63.6z"></path>
		<path id="XMLID_124_" class="logo-color1" d="M267.1,59.5c-0.1-1.2-0.4-1.5-1.4-1.5c-1.1,0-2.2,0-3.4,0c0-0.3-0.1-0.7-0.1-1
			c0.3-0.1,0.6-0.4,0.8-0.4c1.4,0,2.7-0.1,4.1,0c1,0.1,1.8,0.9,1.9,1.9c0.1,2.1,0,4.1,0,6.3c-0.4,0.2-0.7,0.5-1.1,0.5
			c-1.5,0.1-2.9,0.2-4.4,0.1c-1-0.1-1.7-1-1.7-2.1c-0.1-1.6,0.3-2.6,1.4-3c0.6-0.2,1.2-0.3,1.9-0.3c0.4-0.1,0.9-0.1,1.3-0.1
			C266.5,59.7,266.8,59.6,267.1,59.5z M267.1,64c0-1.1,0-1.9,0-2.7c-1-0.3-1.9-0.2-2.8,0.1c-0.7,0.2-1,0.8-0.9,1.5
			c0,0.7,0.4,1.1,1,1.1C265.3,64.1,266.1,64,267.1,64z"></path>
		<path id="XMLID_121_" class="logo-color1" d="M168.5,59.6c-0.1-1.3-0.4-1.5-1.4-1.6c-0.6,0-1.1,0-1.7,0c-0.6,0-1.1,0-1.8,0
			c0-0.3-0.1-0.7-0.1-1c0.3-0.1,0.6-0.4,0.8-0.4c1.3,0,2.6-0.1,3.9,0c1.1,0.1,1.9,0.8,2,1.8c0.1,2.1,0,4.2,0,6.4
			c-0.3,0.2-0.6,0.4-0.9,0.4c-1.5,0.1-2.9,0.3-4.4,0.2c-1.2-0.1-1.9-0.9-1.9-2.2c0-0.4,0-0.7,0-1.1c0-1,0.6-1.7,1.5-1.9
			c0.6-0.2,1.2-0.2,1.9-0.3C167.1,59.7,167.8,59.7,168.5,59.6z M164.9,61.8c-0.1,0.7-0.4,1.5,0.3,1.9c1,0.7,2.1,0.5,3.2,0
			c0-0.8,0-1.6,0-2.5C167.2,61.1,166,60.9,164.9,61.8z"></path>
		<path id="XMLID_118_" class="logo-color1" d="M236.4,61c-0.1,0.8-0.1,1.6-0.3,2.4c-0.3,1.3-1.3,2-2.6,2.1c-0.6,0-1.3,0-1.9,0
			c-1.7-0.1-2.8-1-3-2.7c-0.1-1.2-0.1-2.4,0-3.6c0.2-1.7,1.3-2.6,3-2.7c0.6,0,1.1,0,1.7,0c1.6,0.1,2.8,1.1,3,2.7
			c0.1,0.6,0,1.2,0,1.8C236.3,61,236.4,61,236.4,61z M234.6,61C234.6,61,234.6,61,234.6,61c0-0.6,0-1.2-0.2-1.8
			c-0.3-1-0.8-1.3-2-1.3c-1.2,0-1.8,0.3-1.9,1.3c-0.2,1.1-0.1,2.3,0,3.4c0.1,0.4,0.6,1.1,1,1.1c1.6,0.3,2.8,0.2,3-2.1
			C234.6,61.5,234.6,61.3,234.6,61z"></path>
		<path id="XMLID_115_" class="logo-color1" d="M200.8,61c0,0.6,0.1,1.1,0,1.7c-0.2,1.8-1.3,2.7-3,2.8c-0.5,0-1,0-1.6,0
			c-1.8,0-2.9-1-3.1-2.8c-0.1-1.1-0.1-2.2,0-3.3c0.1-1.7,1.4-2.7,3-2.8c0.5,0,1,0,1.6,0c1.8,0.1,2.9,1,3.1,2.8
			C200.8,59.9,200.8,60.4,200.8,61C200.8,61,200.8,61,200.8,61z M199.1,61C199.1,61,199.1,61,199.1,61c0-0.6,0-1.1-0.1-1.7
			c-0.2-1-0.7-1.3-2-1.3c-1.3,0-1.8,0.2-2,1.2c-0.2,1.1-0.1,2.3,0,3.4c0.1,0.4,0.6,1.1,1,1.2c1.6,0.4,3.1,0.2,3.1-2.1
			C199.1,61.4,199.1,61.2,199.1,61z"></path>
		<path id="XMLID_114_" class="logo-color1" d="M278.8,65.4c-0.7,0-1.2,0-1.8,0c-0.4-2.3,0.1-4.6-0.3-6.8c-1.1-0.9-2.3-0.5-3.5-0.4
			c-0.1,0.5-0.2,0.9-0.2,1.3c0,1.5,0,3,0,4.6c0,0.4-0.1,0.8-0.1,1.4c-0.6,0-1.1,0-1.5,0c-0.4-1.3-0.3-7,0.1-8.2
			c1.8-0.8,3.7-0.8,5.5-0.5c0.9,0.2,1.5,0.9,1.5,1.8c0.1,1.6,0.2,3.2,0.2,4.8C278.8,63.9,278.8,64.5,278.8,65.4z"></path>
		<path id="XMLID_113_" class="logo-color1" d="M149.5,57.1c0.8-0.2,1.6-0.5,2.3-0.6c0.9-0.1,1.9-0.1,2.9,0c1.2,0.1,2.1,0.8,2.2,1.9
			c0.1,2.3,0,4.5,0,6.9c-0.5,0-1,0.1-1.6,0.1c-0.1-0.5-0.1-0.9-0.1-1.4c0-1.4,0-2.9,0-4.3c0-1.4-0.4-1.8-1.8-1.8
			c-0.7,0-1.4,0.1-2.2,0.2c0,2.4,0,4.7,0,7.1c-0.6,0-1.1,0.1-1.7,0.1C149.5,62.6,149.5,59.9,149.5,57.1z"></path>
		<path id="XMLID_112_" class="logo-color1" d="M283.8,68.4c-0.6,0-1,0-1.7,0c0.2-0.7,0.4-1.3,0.6-1.9c0.2-0.6,0.4-1.2,0.6-1.8
			c-1.1-2.6-2.2-5.3-3.4-8.1c0.8,0,1.2-0.1,1.8-0.1c0.8,1.9,1.6,3.7,2.5,5.8c0.7-2.1,1.3-3.9,1.9-5.7c0.6,0,1,0,1.7,0
			C286.6,60.7,285.1,64.6,283.8,68.4z"></path>
		<path id="XMLID_111_" class="logo-color1" d="M98.8,5.4c0-0.1,0-0.2,0-0.2c0.2-3,1.3-3.3,4-3c0.7,0.1,1.2,0.6,1.4,1.3
			c0.5,1.4,0.5,2.8,0,4.1c-0.2,0.5-0.7,0.8-1.1,1.1c-0.1,0.1-0.4,0.1-0.6,0.2C99.9,9.2,98.7,8.1,98.8,5.4z"></path>
		<path id="XMLID_110_" class="logo-color1" d="M179.5,65.4c1.1-1.7,2.1-3.1,3.1-4.6c-0.9-1.4-1.8-2.7-2.8-4.2c0.8,0,1.3-0.1,2-0.1
			c0.6,0.9,1.3,1.7,2,2.7c0.7-1,1.4-1.8,2-2.7c0.6,0,1.1,0,1.7,0c-0.6,1.7-1.9,2.7-2.6,4.3c1,1.4,1.9,2.9,3,4.5c-0.8,0-1.4,0-2.1,0
			c-0.6-0.9-1.3-1.9-2.1-3c-0.7,1.1-1.4,2-2.1,3C180.9,65.4,180.4,65.4,179.5,65.4z"></path>
		<path id="XMLID_109_" class="logo-color1" d="M227,63.9c0.1,0.5,0.2,0.8,0.3,1.4c-1.8,0.2-3.4,0.6-4.9-0.5c-0.4-0.3-0.8-0.9-1-1.5
			c-0.5-1.6-0.5-3.2,0-4.7c0.3-0.9,0.8-1.7,1.8-1.9c1.3-0.4,2.6-0.3,4,0c-0.1,0.5-0.1,0.8-0.2,1.3c-0.8,0-1.5,0-2.2,0
			c-1.2,0.1-1.7,0.5-1.7,1.7c0,0.8,0,1.7,0,2.5c0.1,1.1,0.5,1.6,1.6,1.7C225.4,64,226.2,63.9,227,63.9z"></path>
		<path id="XMLID_108_" class="logo-color1" d="M178.1,56.6c0.1,0.3,0.1,0.4,0.1,0.6c0,0.2-0.1,0.4-0.1,0.8c-0.7,0-1.3,0-2,0
			c-1.3,0-1.7,0.3-2,1.6c-0.3,1.1-0.1,2.1,0.1,3.2c0.2,0.9,1,1.1,1.8,1.1c0.7,0,1.3,0,2.1,0c0.1,0.5,0.1,0.8,0.1,1.2
			c-0.2,0.1-0.3,0.3-0.5,0.3c-1,0-2.1,0.1-3.1,0c-0.9-0.1-1.6-0.7-2-1.6c-0.7-1.8-0.8-3.7-0.1-5.5c0.2-0.6,0.8-1.2,1.4-1.5
			C175.3,56.2,176.7,56.4,178.1,56.6z"></path>
		<path id="XMLID_107_" class="logo-color1" d="M189.6,56.6c0.5,0,0.9,0,1.5,0c0.3,2.9,0.1,5.8,0.1,8.8c-0.7,0-1.1,0-1.6,0
			C189.1,64.4,189.1,57.8,189.6,56.6z"></path>
		<path id="XMLID_106_" class="logo-color1" d="M189.3,55c0-0.5,0-1,0-1.7c0.6,0,1.1-0.1,1.7-0.1c0,0.7,0.1,1.3,0.1,1.7
			C190.5,55.4,190,55.4,189.3,55z"></path>
	</g>
</g>
</svg>