<svg xmlns="http://www.w3.org/2000/svg" width="13" height="12" viewBox="0 0 13 12">
  <path fill="#1E2028" d="M12.0714286,10.9090909 L12.0714286,2.72727273 C12.0714286,2.4260265 11.8635608,2.18181818 11.6071429,2.18181818 L9.75,2.18181818 C9.49358208,2.18181818 9.28571429,2.4260265 9.28571429,2.72727273 L9.28571429,10.9090909 L8.35714286,10.9090909 L8.35714286,0.545454545 C8.35714286,0.244208318 8.14927506,0 7.89285714,0 L6.03571429,0 C5.77929637,0 5.57142857,0.244208318 5.57142857,0.545454545 L5.57142857,10.9090909 L4.64285714,10.9090909 L4.64285714,5.45454545 C4.64285714,5.15329923 4.43498935,4.90909091 4.17857143,4.90909091 L2.32142857,4.90909091 C2.06501065,4.90909091 1.85714286,5.15329923 1.85714286,5.45454545 L1.85714286,10.9090909 L0.928571429,10.9090909 L0.928571429,0 L0,0 L0,11.4545455 C0,11.7557917 0.207867795,12 0.464285714,12 L13,12 L13,10.9090909 L12.0714286,10.9090909 Z M10.2142857,3.27272727 L11.1428571,3.27272727 L11.1428571,10.9090909 L10.2142857,10.9090909 L10.2142857,3.27272727 Z M6.5,1.09090909 L7.42857143,1.09090909 L7.42857143,10.9090909 L6.5,10.9090909 L6.5,1.09090909 Z M2.78571429,6 L3.71428571,6 L3.71428571,10.9090909 L2.78571429,10.9090909 L2.78571429,6 Z"/>
</svg>
