<svg xmlns="http://www.w3.org/2000/svg" width="13" height="13" viewBox="0 0 13 13">
  <path fill="#1E2028" fill-rule="evenodd" d="M4.64285714,1.39260013 C4.64285714,1.13631899 4.43485714,0.929251263 4.17857143,0.929251263 L1.39285714,0.929251263 C1.13633929,0.929251263 0.928571429,1.13631899 0.928571429,1.39260013 L0.928571429,4.17896109 C0.928571429,4.43477795 1.13633929,4.64347065 1.39285714,4.64347065 L4.17857143,4.64347065 C4.43485714,4.64347065 4.64285714,4.43477795 4.64285714,4.17896109 L4.64285714,1.39260013 Z M4.64285714,5.57156122 L0.928571429,5.57156122 C0.415767857,5.57156122 0,5.15580079 0,4.64347065 L0,0.929251263 C0,0.415992572 0.415767857,0 0.928571429,0 L4.64285714,0 C5.15589286,0 5.57142857,0.415992572 5.57142857,0.929251263 L5.57142857,4.64347065 C5.57142857,5.15580079 5.15589286,5.57156122 4.64285714,5.57156122 L4.64285714,5.57156122 Z M4.64285714,8.82127105 C4.64285714,8.56498991 4.43485714,8.35699363 4.17857143,8.35699363 L1.39285714,8.35699363 C1.13633929,8.35699363 0.928571429,8.56498991 0.928571429,8.82127105 L0.928571429,11.6073999 C0.928571429,11.863681 1.13633929,12.071213 1.39285714,12.071213 L4.17857143,12.071213 C4.43485714,12.071213 4.64285714,11.863681 4.64285714,11.6073999 L4.64285714,8.82127105 Z M4.64285714,13 L0.928571429,13 C0.415767857,13 0,12.5842396 0,12.071213 L0,8.35699363 C0,7.84443135 0.415767857,7.42843878 0.928571429,7.42843878 L4.64285714,7.42843878 C5.15589286,7.42843878 5.57142857,7.84443135 5.57142857,8.35699363 L5.57142857,12.071213 C5.57142857,12.5842396 5.15589286,13 4.64285714,13 L4.64285714,13 Z M12.0714286,1.39260013 C12.0714286,1.13631899 11.8634286,0.929251263 11.6071429,0.929251263 L8.82142857,0.929251263 C8.56514286,0.929251263 8.35714286,1.13631899 8.35714286,1.39260013 L8.35714286,4.17896109 C8.35714286,4.43477795 8.56514286,4.64347065 8.82142857,4.64347065 L11.6071429,4.64347065 C11.8634286,4.64347065 12.0714286,4.43477795 12.0714286,4.17896109 L12.0714286,1.39260013 Z M12.0714286,5.57156122 L8.35714286,5.57156122 C7.84433929,5.57156122 7.42857143,5.15580079 7.42857143,4.64347065 L7.42857143,0.929251263 C7.42857143,0.415992572 7.84433929,0 8.35714286,0 L12.0714286,0 C12.5844643,0 13,0.415992572 13,0.929251263 L13,4.64347065 C13,5.15580079 12.5844643,5.57156122 12.0714286,5.57156122 L12.0714286,5.57156122 Z M12.0714286,8.82127105 C12.0714286,8.56498991 11.8634286,8.35699363 11.6071429,8.35699363 L8.82142857,8.35699363 C8.56514286,8.35699363 8.35714286,8.56498991 8.35714286,8.82127105 L8.35714286,11.6073999 C8.35714286,11.863681 8.56514286,12.071213 8.82142857,12.071213 L11.6071429,12.071213 C11.8634286,12.071213 12.0714286,11.863681 12.0714286,11.6073999 L12.0714286,8.82127105 Z M12.0714286,13 L8.35714286,13 C7.84433929,13 7.42857143,12.5842396 7.42857143,12.071213 L7.42857143,8.35699363 C7.42857143,7.84443135 7.84433929,7.42843878 8.35714286,7.42843878 L12.0714286,7.42843878 C12.5844643,7.42843878 13,7.84443135 13,8.35699363 L13,12.071213 C13,12.5842396 12.5844643,13 12.0714286,13 L12.0714286,13 Z"/>
</svg>
