<svg xmlns="http://www.w3.org/2000/svg" width="34" height="34" viewBox="0 0 34 34">
  <path fill-rule="evenodd" d="M20.0198807,3.33333333 C10.8107356,3.33333333 3.33664679,10.8 3.33664679,20 C3.33664679,29.2 10.8107356,36.6666667 20.0198807,36.6666667 C29.2290258,36.6666667 36.7031146,29.2 36.7031146,20 C36.7031146,10.8 29.2290258,3.33333333 20.0198807,3.33333333 L20.0198807,3.33333333 Z M20.0198807,8.33333333 C22.7892975,8.33333333 25.0248509,10.5666667 25.0248509,13.3333333 C25.0248509,16.1 22.7892975,18.3333333 20.0198807,18.3333333 C17.2504639,18.3333333 15.0149105,16.1 15.0149105,13.3333333 C15.0149105,10.5666667 17.2504639,8.33333333 20.0198807,8.33333333 L20.0198807,8.33333333 Z M20.0198807,32 C15.8490722,32 12.1620775,29.8666667 10.0099404,26.6333333 C10.0599901,23.3166667 16.6832339,21.5 20.0198807,21.5 C23.3398443,21.5 29.9797714,23.3166667 30.0298211,26.6333333 C27.8776839,29.8666667 24.1906892,32 20.0198807,32 L20.0198807,32 Z" transform="translate(-3.049 -3)"/>
</svg>
