<svg xmlns="http://www.w3.org/2000/svg" xmlns:xlink="http://www.w3.org/1999/xlink" viewBox="0 0 357.2 170.1"><style type="text/css">.st0{fill:#406EB3;}.st1{fill:#632678;}.st2{fill:#982881;}.st3{fill:#BA2F7D;}.st4{fill:#26478D;}.st5{fill:none;}</style><path class="st0" d="M84,59.5H73.1c-3.3,0-5.9-2.6-5.9-5.9V42.7c0-3.2,2.6-5.9,5.9-5.9H84c3.2,0,5.9,2.6,5.9,5.9v10.9C89.9,56.9,87.3,59.5,84,59.5" /><path class="st1" d="M55.7,84H43.5c-3.7,0-6.6-3-6.6-6.6V65.1c0-3.6,3-6.6,6.6-6.6h12.3c3.7,0,6.6,3,6.6,6.6v12.3C62.4,81.1,59.4,84,55.7,84" /><path class="st2" d="M54.6,109.5h-7.5c-2.2,0-4-1.8-4-4V98c0-2.2,1.8-4,4-4h7.5c2.2,0,4,1.8,4,4v7.5C58.6,107.7,56.8,109.5,54.6,109.5" /><path class="st3" d="M74.7,133.2h-8.9c-2.6,0-4.8-2.1-4.8-4.8v-8.9c0-2.6,2.1-4.8,4.8-4.8h8.9c2.6,0,4.8,2.1,4.8,4.8v8.9C79.5,131.1,77.4,133.2,74.7,133.2" /><path class="st3" d="M107.2,64h-6.1c-1.8,0-3.3-1.5-3.3-3.3v-6.1c0-1.8,1.5-3.3,3.3-3.3h6.1c1.8,0,3.3,1.5,3.3,3.3v6.1C110.6,62.5,109.1,64,107.2,64" /><path class="st4" d="M241.8,68.1c2,0,3.5-1.6,3.5-3.5c0-2-1.6-3.5-3.5-3.5c-2,0-3.6,1.6-3.6,3.5C238.2,66.5,239.8,68.1,241.8,68.1z" /><path class="st4" d="M112.5,105.9c-0.5,0.8-1.4,1.2-2.4,1.2c-0.5,0-1.2-0.1-1.6-0.4c-0.8-0.5-1.3-1.5-1.3-2.5c0-0.5,0.1-1,0.4-1.4l8.2-12.9l-8.2-12.9c-0.3-0.4-0.4-1-0.4-1.4c0-1,0.5-2,1.4-2.5c0.5-0.3,1-0.4,1.5-0.4c1,0,1.9,0.4,2.5,1.2l6.7,10.6l6.8-10.6c0.5-0.8,1.5-1.2,2.5-1.2c0.5,0,1,0.1,1.5,0.4c0.9,0.5,1.4,1.5,1.4,2.5c0,0.5-0.1,1-0.4,1.4l-8.2,12.9l8.2,12.9c0.3,0.4,0.4,0.9,0.4,1.4c0,1-0.5,2.1-1.3,2.5c-0.5,0.3-1.1,0.4-1.6,0.4c-1,0-1.8-0.4-2.4-1.2l-6.8-10.5L112.5,105.9z" /><path class="st4" d="M141.8,76.6c3.1-2.8,7.3-4.5,11.8-4.5c9.9,0,17.7,7.9,17.7,17.7c0,9.7-7.9,17.6-17.7,17.6c-4.5,0-8.7-1.7-11.8-4.5v15.1c0,1.5-1.4,2.8-2.9,2.8c-1.4,0-2.9-1.3-2.9-2.8V75.2c0-1.5,1.4-2.8,2.9-2.8c1.6,0,2.9,1.3,2.9,2.8V76.6z M153.5,78c-6.6,0-11.8,5.2-11.8,11.8c0,6.6,5.2,11.8,11.8,11.8c6.6,0,11.8-5.2,11.8-11.8C165.4,83.2,160.2,78,153.5,78z" /><path class="st4" d="M221.4,86.6v17.7c0,1.5-1.4,2.8-2.9,2.8c-1.6,0-2.9-1.3-2.9-2.8V75.2c0-1.5,1.4-2.8,2.9-2.8c1.4,0,2.8,1.2,2.9,2.7c2.4-1.8,5.5-2.9,8.8-2.9c1.8,0,3.2,1.4,3.2,2.9c0,1.6-1.4,3-3.2,3C225.7,78.2,221.4,79.8,221.4,86.6z" /><path class="st4" d="M241.8,72.4c-1.6,0-2.9,1.3-2.9,2.8v29.2c0,1.5,1.4,2.8,2.9,2.8c1.4,0,2.9-1.3,2.9-2.8V75.2C244.7,73.7,243.3,72.4,241.8,72.4z" /><path class="st4" d="M279,75.2c0-1.5,1.4-2.8,2.9-2.8c1.4,0,2.9,1.3,2.9,2.8v29.2c0,1.5-1.4,2.8-2.9,2.8c-1.6,0-2.9-1.3-2.9-2.8v-1.4c-3.2,2.8-7.3,4.5-11.8,4.5c-9.9,0-17.7-7.9-17.7-17.7c0-9.7,7.9-17.6,17.7-17.6c4.5,0,8.6,1.7,11.8,4.5V75.2z M267.2,101.6c6.6,0,11.8-5.2,11.8-11.8c0-6.6-5.2-11.8-11.8-11.8c-6.6,0-11.8,5.2-11.8,11.8C255.4,96.4,260.6,101.6,267.2,101.6z" /><path class="st4" d="M314.5,87c0-4.9-4.2-9.1-9.1-9.1c-4.7,0-9.1,1.9-9.1,8.8v17.7c0,1.5-1.4,2.8-2.9,2.8c-1.6,0-2.9-1.3-2.9-2.8V75.2c0-1.5,1.4-2.8,2.9-2.8c1.4,0,2.8,1.2,2.9,2.7c2.5-1.9,5.6-2.9,9-2.9c7.9,0,15,6.2,15,14v18.2c0,1.5-1.4,2.8-2.9,2.8c-1.6,0-2.9-1.3-2.9-2.8V87z" /><path class="st4" d="M105.5,88.8c-0.1-9-8.1-16.6-17.6-16.6c-9.9,0-17.7,7.9-17.7,17.6c0,9.9,7.9,17.7,17.7,17.7c4.7,0,9.1-1.8,12.3-5c0.6-0.5,1-1.4,1-2.2c0-1.6-1.4-2.9-2.9-2.9c-0.9,0-1.7,0.5-2.3,1.2c-2,2.1-4.9,3.1-8,3.1c-5.9,0-10.7-4-11.7-9.6h26.4c0,0,0,0,0.1,0h0.1c0,0,0.1,0,0.1,0c0.1,0,0.2,0,0.3-0.1C104.5,91.5,105.5,90.3,105.5,88.8z M87.9,78c5.3,0,9.7,3.4,11.2,8.2H76.6C78.1,81.4,82.5,78,87.9,78z" /><path class="st4" d="M210.7,88.8c-0.1-9-8.2-16.6-17.6-16.6c-9.9,0-17.7,7.9-17.7,17.6c0,9.9,7.9,17.7,17.7,17.7c4.7,0,9.1-1.8,12.3-5c0.6-0.5,1-1.4,1-2.2c0-1.6-1.4-2.9-2.9-2.9c-0.9,0-1.7,0.5-2.3,1.2c-2,2.1-4.9,3.1-8,3.1c-5.9,0-10.7-4-11.7-9.6h26.4c0,0,0,0,0.1,0h0.1c0.1,0,0.2,0,0.2,0c0,0,0.1,0,0.1,0C209.6,91.6,210.7,90.3,210.7,88.8z M193.1,78			c5.3,0,9.7,3.4,11.2,8.2h-22.5C183.3,81.4,187.7,78,193.1,78z" /><path class="st4" d="M326.5,107.2c-0.3,0-0.5-0.2-0.5-0.5v-4.9h-1.1c-0.3,0-0.5-0.2-0.5-0.5c0-0.3,0.2-0.5,0.5-0.5h3.2c0.3,0,0.5,0.2,0.5,0.5c0,0.3-0.2,0.5-0.5,0.5H327v4.9C327,107,326.8,107.2,326.5,107.2z" /><path class="st4" d="M332.2,107.2c-0.3,0-0.4-0.2-0.5-0.4l-1.4-4v3.9c0,0.3-0.2,0.5-0.5,0.5c-0.3,0-0.5-0.2-0.5-0.5v-5.2c0-0.4,0.3-0.7,0.7-0.7c0.3,0,0.6,0.2,0.7,0.5l1.4,4.1l1.4-4.1c0.1-0.3,0.4-0.5,0.7-0.5c0.4,0,0.7,0.3,0.7,0.7v5.2c0,0.3-0.2,0.5-0.5,0.5c-0.3,0-0.5-0.2-0.5-0.5v-3.9c-0.2,0.6-0.5,1.6-0.8,2.4c-0.5,1.6-0.6,1.6-0.6,1.6C332.6,107.1,332.4,107.2,332.2,107.2z" /><path class="st5" d="M32.1,81.3h-8.9c-2.6,0-4.8-2.1-4.8-4.8v-8.9c0-2.6,2.1-4.8,4.8-4.8h8.9c2.6,0,4.8,2.1,4.8,4.8v8.9C36.9,79.2,34.7,81.3,32.1,81.3" /><path class="st5" d="M13.6,81.3H4.8c-2.6,0-4.8-2.1-4.8-4.8v-8.9c0-2.6,2.1-4.8,4.8-4.8h8.9c2.6,0,4.8,2.1,4.8,4.8v8.9C18.4,79.2,16.3,81.3,13.6,81.3" /><path class="st5" d="M79.5,138v8.9c0,2.6-2.1,4.8-4.8,4.8h-8.9c-2.6,0-4.8-2.1-4.8-4.8V138c0-2.6,2.1-4.8,4.8-4.8h8.9C77.4,133.2,79.5,135.4,79.5,138" /><path class="st5" d="M79.5,156.4v8.9c0,2.6-2.1,4.8-4.8,4.8h-8.9c-2.6,0-4.8-2.1-4.8-4.8v-8.9c0-2.6,2.1-4.8,4.8-4.8h8.9C77.4,151.7,79.5,153.8,79.5,156.4" /><path class="st5" d="M70.4,32.1v-8.9c0-2.6,2.1-4.8,4.8-4.8H84c2.6,0,4.8,2.1,4.8,4.8v8.9c0,2.6-2.1,4.8-4.8,4.8h-8.9C72.5,36.9,70.4,34.7,70.4,32.1" /><path class="st5" d="M70.4,13.6V4.8c0-2.6,2.1-4.8,4.8-4.8H84c2.6,0,4.8,2.1,4.8,4.8v8.9c0,2.6-2.1,4.8-4.8,4.8h-8.9C72.5,18.4,70.4,16.3,70.4,13.6" /><path class="st5" d="M352.4,105.7h-8.9c-2.6,0-4.8-2.1-4.8-4.8v-8.9c0-2.6,2.1-4.8,4.8-4.8h8.9c2.6,0,4.8,2.1,4.8,4.8v8.9C357.2,103.6,355,105.7,352.4,105.7" /><path class="st5" d="M334,105.7h-8.9c-2.6,0-4.8-2.1-4.8-4.8v-8.9c0-2.6,2.1-4.8,4.8-4.8h8.9c2.6,0,4.8,2.1,4.8,4.8v8.9C338.7,103.6,336.6,105.7,334,105.7" /></svg>
